<svg version="1.1" viewBox="0.0 0.0 947.1706036745406 216.33333333333334" fill="none" stroke="none" stroke-linecap="square" stroke-miterlimit="10" xmlns:xlink="http://www.w3.org/1999/xlink" xmlns="http://www.w3.org/2000/svg"><clipPath id="p.0"><path d="m0 0l947.1706 0l0 216.33333l-947.1706 0l0 -216.33333z" clip-rule="nonzero"/></clipPath><g clip-path="url(#p.0)"><path fill="#000000" fill-opacity="0.0" d="m0 0l947.1706 0l0 216.33333l-947.1706 0z" fill-rule="evenodd"/><path fill="#0000ff" d="m-8.755905 0l955.937 0l0 216.34645l-955.937 0z" fill-rule="evenodd"/><path stroke="#000000" stroke-width="1.0" stroke-linejoin="round" stroke-linecap="butt" d="m-8.755905 0l955.937 0l0 216.34645l-955.937 0z" fill-rule="evenodd"/><path fill="#ffffff" d="m901.8057 18.000027l-30.198486 0.020011902l-17.329102 18.21621l17.329102 18.193237l30.198486 -0.020011902l-17.329102 -18.193241z" fill-rule="evenodd"/><path stroke="#000000" stroke-width="1.0" stroke-linejoin="round" stroke-linecap="butt" d="m901.8057 18.000027l-30.198486 0.020011902l-17.329102 18.21621l17.329102 18.193237l30.198486 -0.020011902l-17.329102 -18.193241z" fill-rule="evenodd"/><path fill="#000000" fill-opacity="0.0" d="m567.5066 10.362205l261.07086 0l0 51.716534l-261.07086 0z" fill-rule="evenodd"/><path fill="#ffffff" d="m649.48047 22.899704l-1.4375 2.421875l-1.84375 -1.046875l-1.046875 2.0625l-2.421875 -1.328125l1.359375 -2.296875l1.921875 0.96875l1.140625 -1.984375l2.328125 1.203125zm3.0 18.25l-1.703125 0q-0.46875 0 -0.859375 -0.203125q-0.75 -0.375 -1.28125 -1.375q-0.703125 -1.375 -0.90625 -3.765625q-0.890625 1.09375 -1.375 1.546875q-0.71875 0.65625 -1.203125 0.65625q-0.25 0 -0.625 -0.078125l-1.59375 -0.3125q-1.015625 -0.203125 -1.25 -0.296875q-0.234375 -0.09375 -0.234375 -0.328125q0 -0.34375 0.90625 -2.203125q0.90625 -1.875 1.3125 -2.328125q0.328125 -0.34375 1.15625 -0.90625q0.5 -0.34375 1.40625 -0.875l0.6875 -0.40625q-0.03125 -0.171875 -0.0625 -0.359375q-0.015625 -0.1875 -0.015625 -0.359375q0 -0.5 0.234375 -1.25q0.234375 -0.75 0.8125 -1.859375l1.25 8.125q0.296875 1.921875 0.78125 2.59375q0.3125 0.4375 0.859375 0.4375l1.703125 0l0 3.546875zm-5.0625 -7.359375l-0.265625 -1.5625q-0.40625 0.203125 -0.640625 0.3125q-0.71875 0.375 -1.15625 0.703125q-0.3125 0.265625 -0.515625 0.484375q-0.265625 0.28125 -0.265625 0.4375q0 0.171875 0.453125 0.28125q0.46875 0.109375 0.90625 0.109375q0.28125 0 0.59375 -0.15625q0.3125 -0.171875 0.890625 -0.609375zm16.125916 7.34375q-1.359375 0 -3.21875 -0.53125q-1.625 -0.46875 -2.859375 -1.109375q-0.75 1.140625 -1.859375 1.484375q-0.53125 0.171875 -1.453125 0.171875l-2.578125 0l0 -3.546875l2.578125 0q1.171875 0 1.859375 -0.28125q0.875 -0.359375 1.21875 -1.265625q0.75 -1.65625 1.90625 -2.71875q1.015625 -0.953125 1.734375 -0.953125q0.671875 0 1.640625 2.015625q1.03125 2.109375 1.03125 3.890625l0 2.84375zm-2.4375 -3.921875q0 -0.296875 -0.5625 -1.0q-0.625 -0.78125 -1.078125 -0.78125q-0.5 0 -0.859375 1.171875q0.6875 0.265625 1.03125 0.390625q1.0625 0.390625 1.1875 0.390625q0.28125 0 0.28125 -0.171875zm15.3289795 -2.265625l-1.46875 3.6875q-3.5 1.078125 -5.78125 1.671875q-2.0 0.5 -3.359375 0.703125q-1.0 0.140625 -2.015625 0.140625l-1.171875 0l0 -3.546875l1.40625 0q0.375 0 0.546875 0q0.390625 -0.0625 0.78125 -0.078125q-0.65625 -0.984375 -0.875 -1.578125q-0.21875 -0.609375 -0.21875 -1.375q0 -1.9375 1.59375 -3.390625q1.609375 -1.453125 3.765625 -1.453125q1.4375 0 2.75 0.953125q1.21875 0.890625 1.78125 2.15625l-0.546875 0.46875q-1.03125 -0.390625 -1.640625 -0.5q-0.609375 -0.125 -1.484375 -0.125q-1.609375 0 -2.796875 0.25q-1.5 0.328125 -1.5 0.9375q0 0.90625 3.625 2.96875l6.609375 -1.890625zm6.3433228 2.421875q0 1.15625 -0.28125 2.109375q-0.265625 0.953125 -1.046875 2.5625l-0.78125 -0.3125q0.3125 -1.65625 0.3125 -2.703125q0 -0.796875 -0.125 -2.328125q-0.125 -1.53125 -0.328125 -3.03125q-0.1875 -1.515625 -0.640625 -3.59375q-0.15625 -0.734375 -0.15625 -1.0q0 -0.40625 0.40625 -1.375q0.40625 -0.96875 1.140625 -2.34375l0.78125 4.609375q0.421875 2.625 0.59375 4.546875q0.125 1.484375 0.125 2.859375zm10.107117 3.78125l-5.90625 0q-0.859375 0 -1.3125 -0.359375q-0.5625 -0.453125 -0.5625 -1.453125q0 -0.578125 0.0625 -1.234375q0.0625 -0.65625 0.171875 -1.34375l0.5 -0.015625q0.109375 0.453125 0.46875 0.65625q0.359375 0.203125 0.859375 0.203125l4.484375 0q-0.3125 -1.90625 -1.046875 -3.046875q-0.609375 -0.953125 -1.703125 -1.640625l0.9375 -4.0625q1.6875 1.265625 2.390625 3.25q0.65625 1.828125 0.65625 4.875l0 4.171875z" fill-rule="nonzero"/><path fill="#ffffff" d="m708.6869 41.149704l-5.90625 0q-0.859375 0 -1.3125 -0.359375q-0.5625 -0.453125 -0.5625 -1.453125q0 -0.578125 0.0625 -1.234375q0.0625 -0.65625 0.171875 -1.34375l0.5 -0.015625q0.109375 0.453125 0.46875 0.65625q0.359375 0.203125 0.859375 0.203125l4.484375 0q-0.3125 -1.90625 -1.046875 -3.046875q-0.609375 -0.953125 -1.703125 -1.640625l0.9375 -4.0625q1.6875 1.265625 2.390625 3.25q0.65625 1.828125 0.65625 4.875l0 4.171875zm4.80896 -3.78125q0 1.15625 -0.28125 2.109375q-0.265625 0.953125 -1.046875 2.5625l-0.78125 -0.3125q0.3125 -1.65625 0.3125 -2.703125q0 -0.796875 -0.125 -2.328125q-0.125 -1.53125 -0.328125 -3.03125q-0.1875 -1.515625 -0.640625 -3.59375q-0.15625 -0.734375 -0.15625 -1.0q0 -0.40625 0.40625 -1.375q0.40625 -0.96875 1.140625 -2.34375l0.78125 4.609375q0.421875 2.625 0.59375 4.546875q0.125 1.484375 0.125 2.859375zm12.997742 2.875q0 2.25 -1.90625 4.4375q-1.90625 2.1875 -3.75 2.1875q-1.078125 0 -2.359375 -0.703125q-1.28125 -0.6875 -3.9375 -2.71875l0.546875 -0.75q1.40625 0.9375 2.296875 1.25q0.75 0.265625 1.6875 0.265625q1.265625 0 2.5 -0.703125q1.453125 -0.84375 3.015625 -2.6875q-0.546875 0.078125 -0.90625 0.078125q-1.296875 0 -2.0625 -0.828125q-0.75 -0.84375 -0.75 -2.296875q0 -1.953125 0.890625 -3.765625q0.984375 -1.953125 2.234375 -1.953125q1.03125 0 1.765625 1.421875q0.734375 1.40625 0.734375 3.421875l0 3.34375zm-1.5625 -2.640625q-0.375 -2.09375 -1.484375 -2.09375q-0.40625 0 -0.65625 0.328125q-0.234375 0.3125 -0.234375 0.6875q0 0.46875 0.515625 0.78125q0.515625 0.296875 1.359375 0.296875l0.5 0zm12.6203 3.53125q-1.359375 0 -3.21875 -0.53125q-1.625 -0.46875 -2.859375 -1.109375q-0.75 1.140625 -1.859375 1.484375q-0.53125 0.171875 -1.453125 0.171875l-2.578125 0l0 -3.546875l2.578125 0q1.171875 0 1.859375 -0.28125q0.875 -0.359375 1.21875 -1.265625q0.75 -1.65625 1.90625 -2.71875q1.015625 -0.953125 1.734375 -0.953125q0.671875 0 1.640625 2.015625q1.03125 2.109375 1.03125 3.890625l0 2.84375zm-2.4375 -3.921875q0 -0.296875 -0.5625 -1.0q-0.625 -0.78125 -1.078125 -0.78125q-0.5 0 -0.859375 1.171875q0.6875 0.265625 1.03125 0.390625q1.0625 0.390625 1.1875 0.390625q0.28125 0 0.28125 -0.171875z" fill-rule="nonzero"/><path fill="#ffffff" d="m756.24756 40.243454q0 2.25 -1.90625 4.4375q-1.90625 2.1875 -3.75 2.1875q-1.078125 0 -2.359375 -0.703125q-1.28125 -0.6875 -3.9375 -2.71875l0.546875 -0.75q1.40625 0.9375 2.296875 1.25q0.75 0.265625 1.6875 0.265625q1.265625 0 2.5 -0.703125q1.453125 -0.84375 3.015625 -2.6875q-0.546875 0.078125 -0.90625 0.078125q-1.296875 0 -2.0625 -0.828125q-0.75 -0.84375 -0.75 -2.296875q0 -1.953125 0.890625 -3.765625q0.984375 -1.953125 2.234375 -1.953125q1.03125 0 1.765625 1.421875q0.734375 1.40625 0.734375 3.421875l0 3.34375zm-1.5625 -2.640625q-0.375 -2.09375 -1.484375 -2.09375q-0.40625 0 -0.65625 0.328125q-0.234375 0.3125 -0.234375 0.6875q0 0.46875 0.515625 0.78125q0.515625 0.296875 1.359375 0.296875l0.5 0z" fill-rule="nonzero"/><path fill="#ffffff" d="m786.8756 41.13408q-1.421875 0 -2.046875 -0.125q-0.609375 -0.140625 -2.265625 -0.734375q-0.75 0.53125 -1.34375 0.703125q-0.59375 0.171875 -1.78125 0.171875l-2.125 0q0 3.015625 -1.921875 4.34375q-1.6875 1.15625 -5.0625 1.15625q-3.171875 0 -4.890625 -1.15625q-1.703125 -1.140625 -1.703125 -3.265625q0 -1.8125 0.546875 -3.3125q0.609375 -1.640625 2.34375 -4.28125l0.78125 0.546875q-1.28125 2.1875 -1.6875 3.1875q-0.390625 0.984375 -0.390625 2.03125q0 1.375 1.453125 2.25q1.46875 0.859375 3.859375 0.859375q2.34375 0 3.9375 -0.890625q1.609375 -0.90625 1.609375 -2.21875q0 -0.796875 -0.28125 -1.59375q-0.28125 -0.796875 -1.203125 -2.53125l1.140625 -3.515625q0.921875 1.5625 1.21875 2.578125q0.265625 0.875 0.265625 2.265625l1.203125 0q1.953125 0 2.734375 -0.453125q0.78125 -0.46875 0.78125 -1.65625q0 -0.53125 0.09375 -0.765625q0.09375 -0.25 0.453125 -0.5l0.609375 -0.4375q0.03125 0.25 0.046875 0.671875q0.015625 0.421875 0.015625 0.5625q0 0.703125 -0.21875 1.890625q0.609375 0.203125 1.203125 0.375q0.609375 0.15625 1.140625 0.234375q0 -0.46875 -0.328125 -1.140625q-0.3125 -0.6875 -0.3125 -0.890625q0 -0.15625 0.046875 -0.296875q0.046875 -0.15625 0.203125 -0.390625l1.234375 -1.734375q0.34375 0.8125 0.484375 1.484375q0.15625 0.671875 0.15625 1.671875l0 4.90625zm12.037537 -0.890625q0 2.25 -1.90625 4.4375q-1.90625 2.1875 -3.75 2.1875q-1.078125 0 -2.359375 -0.703125q-1.28125 -0.6875 -3.9375 -2.71875l0.546875 -0.75q1.40625 0.9375 2.296875 1.25q0.75 0.265625 1.6875 0.265625q1.265625 0 2.5 -0.703125q1.453125 -0.84375 3.015625 -2.6875q-0.546875 0.078125 -0.90625 0.078125q-1.296875 0 -2.0625 -0.828125q-0.75 -0.84375 -0.75 -2.296875q0 -1.953125 0.890625 -3.765625q0.984375 -1.953125 2.234375 -1.953125q1.03125 0 1.765625 1.421875q0.734375 1.40625 0.734375 3.421875l0 3.34375zm-1.5625 -2.640625q-0.375 -2.09375 -1.484375 -2.09375q-0.40625 0 -0.65625 0.328125q-0.234375 0.3125 -0.234375 0.6875q0 0.46875 0.515625 0.78125q0.515625 0.296875 1.359375 0.296875l0.5 0zm13.08905 3.84375q0 0.796875 -0.921875 2.109375q-0.90625 1.296875 -2.125 2.265625q-1.359375 1.0625 -2.3125 1.0625q-1.140625 0 -2.46875 -0.640625q-1.140625 -0.5625 -3.578125 -2.25l0.546875 -0.796875q1.171875 0.78125 1.890625 1.0625q0.71875 0.265625 1.546875 0.265625q0.90625 0 1.796875 -0.5q0.90625 -0.515625 2.453125 -1.90625q2.15625 -1.921875 2.15625 -2.96875q0 -0.515625 -0.421875 -1.359375q-0.46875 -0.96875 -1.140625 -1.59375l0.734375 -3.515625q0.875 0.90625 1.359375 2.09375q0.484375 1.1875 0.484375 2.6875l0 3.984375zm9.141296 -0.296875l-5.90625 0q-0.859375 0 -1.3125 -0.359375q-0.5625 -0.453125 -0.5625 -1.453125q0 -0.578125 0.0625 -1.234375q0.0625 -0.65625 0.171875 -1.34375l0.5 -0.015625q0.109375 0.453125 0.46875 0.65625q0.359375 0.203125 0.859375 0.203125l4.484375 0q-0.3125 -1.90625 -1.046875 -3.046875q-0.609375 -0.953125 -1.703125 -1.640625l0.9375 -4.0625q1.6875 1.265625 2.390625 3.25q0.65625 1.828125 0.65625 4.875l0 4.171875z" fill-rule="nonzero"/><path fill="#ffffff" d="m897.8241 79.190315l-30.198486 0.020011902l-17.329102 18.21621l17.329102 18.193237l30.198486 -0.020011902l-17.329102 -18.193237z" fill-rule="evenodd"/><path stroke="#000000" stroke-width="1.0" stroke-linejoin="round" stroke-linecap="butt" d="m897.8241 79.190315l-30.198486 0.020011902l-17.329102 18.21621l17.329102 18.193237l30.198486 -0.020011902l-17.329102 -18.193237z" fill-rule="evenodd"/><path fill="#000000" fill-opacity="0.0" d="m623.38055 76.65092l205.1969 0l0 51.71653l-205.1969 0z" fill-rule="evenodd"/><path fill="#ffffff" d="m700.6323 89.188416l-1.4375 2.421875l-1.84375 -1.046875l-1.046875 2.0625l-2.421875 -1.328125l1.359375 -2.296875l1.921875 0.96875l1.140625 -1.984375l2.328125 1.203125zm3.0 18.25l-1.703125 0q-0.46875 0 -0.859375 -0.203125q-0.75 -0.375 -1.28125 -1.375q-0.703125 -1.375 -0.90625 -3.765625q-0.890625 1.09375 -1.375 1.546875q-0.71875 0.65625 -1.203125 0.65625q-0.25 0 -0.625 -0.078125l-1.59375 -0.3125q-1.015625 -0.203125 -1.25 -0.296875q-0.234375 -0.09375 -0.234375 -0.328125q0 -0.34375 0.90625 -2.203125q0.90625 -1.875 1.3125 -2.328125q0.328125 -0.34375 1.15625 -0.90625q0.5 -0.34375 1.40625 -0.875l0.6875 -0.40625q-0.03125 -0.171875 -0.0625 -0.359375q-0.015625 -0.1875 -0.015625 -0.359375q0 -0.5 0.234375 -1.25q0.234375 -0.75 0.8125 -1.859375l1.25 8.125q0.296875 1.921875 0.78125 2.59375q0.3125 0.4375 0.859375 0.4375l1.703125 0l0 3.546875zm-5.0625 -7.359375l-0.265625 -1.5625q-0.40625 0.203125 -0.640625 0.3125q-0.71875 0.375 -1.15625 0.703125q-0.3125 0.265625 -0.515625 0.484375q-0.265625 0.28125 -0.265625 0.4375q0 0.171875 0.453125 0.28125q0.46875 0.109375 0.90625 0.109375q0.28125 0 0.59375 -0.15625q0.3125 -0.171875 0.890625 -0.609375zm12.2977295 7.359375l-8.140625 0l0 -3.546875l6.84375 0q-0.140625 -0.875 -0.515625 -1.484375q-0.203125 -0.34375 -0.921875 -1.171875l1.046875 -3.109375q0.96875 1.109375 1.328125 2.328125q0.359375 1.203125 0.359375 3.59375l0 3.390625zm-0.203125 2.296875l-1.4375 2.640625l-1.84375 -1.03125l-1.046875 2.046875l-2.421875 -1.328125l1.359375 -2.515625l1.921875 0.96875l1.09375 -2.109375l2.375 1.328125zm7.2211304 -17.953125l-1.4375 2.65625l-1.84375 -1.046875l-1.046875 2.0625l-2.421875 -1.328125l1.359375 -2.53125l1.921875 0.96875l1.09375 -2.109375l2.375 1.328125zm1.625 15.65625l-9.546875 0l0 -3.546875l2.34375 0q0.59375 0 1.125 0.0625q1.4375 0.15625 3.265625 0.34375q-1.9375 -0.421875 -2.71875 -1.125q-0.765625 -0.71875 -0.765625 -2.078125q0 -2.015625 0.921875 -3.625q0.9375 -1.625 2.09375 -1.625q1.3125 0 2.296875 2.265625q0.984375 2.265625 0.984375 5.484375l0 3.84375zm-1.765625 -5.40625q-0.46875 -1.109375 -1.046875 -1.734375q-0.5625 -0.625 -1.140625 -0.625q-0.265625 0 -0.46875 0.171875q-0.1875 0.15625 -0.1875 0.390625q0 0.5625 0.84375 1.09375q0.84375 0.53125 2.0 0.703125zm9.001831 5.40625l-8.140625 0l0 -3.546875l6.84375 0q-0.140625 -0.875 -0.515625 -1.484375q-0.203125 -0.34375 -0.921875 -1.171875l1.046875 -3.109375q0.96875 1.109375 1.328125 2.328125q0.359375 1.203125 0.359375 3.59375l0 3.390625zm-0.203125 2.296875l-1.4375 2.640625l-1.84375 -1.03125l-1.046875 2.046875l-2.421875 -1.328125l1.359375 -2.515625l1.921875 0.96875l1.09375 -2.109375l2.375 1.328125zm7.4398804 -2.296875l-8.140625 0l0 -3.546875l6.84375 0q-0.140625 -0.875 -0.515625 -1.484375q-0.203125 -0.34375 -0.921875 -1.171875l1.046875 -3.109375q0.96875 1.109375 1.328125 2.328125q0.359375 1.203125 0.359375 3.59375l0 3.390625zm-1.328125 2.75l-1.5625 2.90625l-3.015625 -1.640625l1.5625 -2.96875l3.015625 1.703125zm15.28363 -2.75l-14.859375 0l0 -3.546875l1.71875 0q0.3125 0 1.765625 -1.078125q0.484375 -0.34375 1.390625 -1.09375q0 -1.59375 -0.125 -2.703125q-0.109375 -1.109375 -0.375 -2.296875q-0.0625 -0.296875 -0.703125 -2.828125l-0.75 -0.46875q0.296875 -1.375 0.484375 -1.953125q0.203125 -0.59375 0.765625 -1.875l0.59375 0.234375q0 0.078125 -0.046875 0.34375q0 0.453125 1.296875 1.078125q0.421875 0.203125 1.28125 0.53125q-0.125 1.015625 -0.421875 1.890625q-0.140625 0.453125 -0.515625 1.390625l-0.46875 -0.15625q0.40625 1.84375 0.53125 2.71875q0.140625 0.875 0.140625 1.578125l0 0.140625q0 0.375 -0.015625 0.59375q-0.015625 0.203125 -0.109375 0.671875q0.671875 -0.5 1.359375 -1.0q1.0625 -0.734375 1.890625 -1.1875q1.09375 -0.609375 1.671875 -0.609375q1.53125 0 2.453125 0.796875q1.046875 0.90625 1.046875 2.59375l0 6.234375zm-1.8125 -4.875q0 -0.453125 -0.96875 -0.84375q-0.953125 -0.40625 -1.6875 -0.40625q-0.859375 0 -1.9375 0.5625q-1.0625 0.546875 -3.109375 2.015625l3.40625 0q4.296875 0 4.296875 -1.328125zm8.843506 -9.046875l-1.4375 2.65625l-1.84375 -1.03125l-1.046875 2.046875l-2.421875 -1.328125l1.359375 -2.515625l1.921875 0.953125l1.09375 -2.109375l2.375 1.328125zm0.203125 13.921875l-8.140625 0l0 -3.546875l6.84375 0q-0.140625 -0.875 -0.515625 -1.484375q-0.203125 -0.34375 -0.921875 -1.171875l1.046875 -3.109375q0.96875 1.109375 1.328125 2.328125q0.359375 1.203125 0.359375 3.59375l0 3.390625z" fill-rule="nonzero"/><path fill="#ffffff" d="m771.9802 96.563416l-1.5625 2.90625l-3.046875 -1.578125l1.578125 -2.953125l3.03125 1.625zm4.28125 10.234375q0 1.796875 -0.359375 2.890625q-0.34375 1.078125 -1.140625 1.734375q-0.796875 0.671875 -2.34375 1.09375q-1.546875 0.421875 -3.1875 0.421875q-3.15625 0 -4.875 -1.15625q-1.703125 -1.140625 -1.703125 -3.265625q0 -1.8125 0.546875 -3.3125q0.59375 -1.640625 2.34375 -4.28125l0.78125 0.546875q-1.296875 2.1875 -1.703125 3.1875q-0.390625 0.984375 -0.390625 2.03125q0 1.375 1.46875 2.25q1.46875 0.859375 3.84375 0.859375q2.34375 0 3.9375 -0.890625q1.609375 -0.90625 1.609375 -2.21875q0 -0.796875 -0.28125 -1.59375q-0.28125 -0.796875 -1.203125 -2.53125l1.140625 -3.515625q0.921875 1.640625 1.125 2.265625q0.390625 1.140625 0.390625 2.890625l0 2.59375zm7.2339478 0.640625l-8.140625 0l0 -3.546875l6.84375 0q-0.140625 -0.875 -0.515625 -1.484375q-0.203125 -0.34375 -0.921875 -1.171875l1.046875 -3.109375q0.96875 1.109375 1.328125 2.328125q0.359375 1.203125 0.359375 3.59375l0 3.390625zm-0.203125 2.296875l-1.4375 2.640625l-1.84375 -1.03125l-1.046875 2.046875l-2.421875 -1.328125l1.359375 -2.515625l1.921875 0.96875l1.09375 -2.109375l2.375 1.328125zm11.736755 -2.0q0 0.796875 -0.921875 2.109375q-0.90625 1.296875 -2.125 2.265625q-1.359375 1.0625 -2.3125 1.0625q-1.140625 0 -2.46875 -0.640625q-1.140625 -0.5625 -3.578125 -2.25l0.546875 -0.796875q1.171875 0.78125 1.890625 1.0625q0.71875 0.265625 1.546875 0.265625q0.90625 0 1.796875 -0.5q0.90625 -0.515625 2.453125 -1.90625q2.15625 -1.921875 2.15625 -2.96875q0 -0.515625 -0.421875 -1.359375q-0.46875 -0.96875 -1.140625 -1.59375l0.734375 -3.515625q0.875 0.90625 1.359375 2.09375q0.484375 1.1875 0.484375 2.6875l0 3.984375zm6.2506714 -0.296875l-1.828125 0q-1.515625 0 -2.203125 -1.25q-0.75 -1.375 -0.75 -4.640625l0 -3.71875q0 -1.265625 -0.34375 -1.96875q-0.171875 -0.328125 -0.78125 -0.96875l1.40625 -3.25q0.75 1.03125 1.046875 2.046875q0.359375 1.1875 0.359375 3.03125l0 2.5625q0 2.71875 0.359375 3.765625q0.28125 0.84375 0.90625 0.84375l1.828125 0l0 3.546875zm11.060059 -0.015625q-1.359375 0 -3.21875 -0.53125q-1.625 -0.46875 -2.859375 -1.109375q-0.75 1.140625 -1.859375 1.484375q-0.53125 0.171875 -1.453125 0.171875l-2.578125 0l0 -3.546875l2.578125 0q1.171875 0 1.859375 -0.28125q0.875 -0.359375 1.21875 -1.265625q0.75 -1.65625 1.90625 -2.71875q1.015625 -0.953125 1.734375 -0.953125q0.671875 0 1.640625 2.015625q1.03125 2.109375 1.03125 3.890625l0 2.84375zm-2.4375 -3.921875q0 -0.296875 -0.5625 -1.0q-0.625 -0.78125 -1.078125 -0.78125q-0.5 0 -0.859375 1.171875q0.6875 0.265625 1.03125 0.390625q1.0625 0.390625 1.1875 0.390625q0.28125 0 0.28125 -0.171875zm9.469666 -9.984375l-1.4375 2.65625l-1.84375 -1.03125l-1.046875 2.046875l-2.421875 -1.328125l1.359375 -2.515625l1.921875 0.953125l1.09375 -2.109375l2.375 1.328125zm0.203125 13.921875l-8.140625 0l0 -3.546875l6.84375 0q-0.140625 -0.875 -0.515625 -1.484375q-0.203125 -0.34375 -0.921875 -1.171875l1.046875 -3.109375q0.96875 1.109375 1.328125 2.328125q0.359375 1.203125 0.359375 3.59375l0 3.390625z" fill-rule="nonzero"/><path fill="#ffffff" d="m897.8241 140.38191l-30.198486 0.020019531l-17.329102 18.216202l17.329102 18.193237l30.198486 -0.020004272l-17.329102 -18.193237z" fill-rule="evenodd"/><path stroke="#000000" stroke-width="1.0" stroke-linejoin="round" stroke-linecap="butt" d="m897.8241 140.38191l-30.198486 0.020019531l-17.329102 18.216202l17.329102 18.193237l30.198486 -0.020004272l-17.329102 -18.193237z" fill-rule="evenodd"/><path fill="#000000" fill-opacity="0.0" d="m504.9239 129.95801l323.65356 0l0 51.716537l-323.65356 0z" fill-rule="evenodd"/><path fill="#ffffff" d="m605.8517 142.4955l-1.4375 2.421875l-1.84375 -1.046875l-1.046875 2.0625l-2.421875 -1.328125l1.359375 -2.296875l1.921875 0.96875l1.140625 -1.984375l2.328125 1.203125zm3.0 18.25l-1.703125 0q-0.46875 0 -0.859375 -0.203125q-0.75 -0.375 -1.28125 -1.375q-0.703125 -1.375 -0.90625 -3.765625q-0.890625 1.09375 -1.375 1.546875q-0.71875 0.65625 -1.203125 0.65625q-0.25 0 -0.625 -0.078125l-1.59375 -0.3125q-1.015625 -0.203125 -1.25 -0.296875q-0.234375 -0.09375 -0.234375 -0.328125q0 -0.34375 0.90625 -2.203125q0.90625 -1.875 1.3125 -2.328125q0.328125 -0.34375 1.15625 -0.90625q0.5 -0.34375 1.40625 -0.875l0.6875 -0.40625q-0.03125 -0.171875 -0.0625 -0.359375q-0.015625 -0.1875 -0.015625 -0.359375q0 -0.5 0.234375 -1.25q0.234375 -0.75 0.8125 -1.859375l1.25 8.125q0.296875 1.921875 0.78125 2.59375q0.3125 0.4375 0.859375 0.4375l1.703125 0l0 3.546875zm-5.0625 -7.359375l-0.265625 -1.5625q-0.40625 0.203125 -0.640625 0.3125q-0.71875 0.375 -1.15625 0.703125q-0.3125 0.265625 -0.515625 0.484375q-0.265625 0.28125 -0.265625 0.4375q0 0.171875 0.453125 0.28125q0.46875 0.109375 0.90625 0.109375q0.28125 0 0.59375 -0.15625q0.3125 -0.171875 0.890625 -0.609375zm12.0789795 -8.296875l-1.4375 2.65625l-1.84375 -1.046875l-1.046875 2.0625l-2.421875 -1.328125l1.359375 -2.53125l1.921875 0.96875l1.09375 -2.109375l2.375 1.328125zm1.625 15.65625l-9.546875 0l0 -3.546875l2.34375 0q0.59375 0 1.125 0.0625q1.4375 0.15625 3.265625 0.34375q-1.9375 -0.421875 -2.71875 -1.125q-0.765625 -0.71875 -0.765625 -2.078125q0 -2.015625 0.921875 -3.625q0.9375 -1.625 2.09375 -1.625q1.3125 0 2.296875 2.265625q0.984375 2.265625 0.984375 5.484375l0 3.84375zm-1.765625 -5.40625q-0.46875 -1.109375 -1.046875 -1.734375q-0.5625 -0.625 -1.140625 -0.625q-0.265625 0 -0.46875 0.171875q-0.1875 0.15625 -0.1875 0.390625q0 0.5625 0.84375 1.09375q0.84375 0.53125 2.0 0.703125zm9.001831 5.40625l-8.140625 0l0 -3.546875l6.84375 0q-0.140625 -0.875 -0.515625 -1.484375q-0.203125 -0.34375 -0.921875 -1.171875l1.046875 -3.109375q0.96875 1.109375 1.328125 2.328125q0.359375 1.203125 0.359375 3.59375l0 3.390625zm-1.328125 2.75l-1.5625 2.90625l-3.015625 -1.640625l1.5625 -2.96875l3.015625 1.703125zm7.5805054 -2.75l-1.828125 0q-1.515625 0 -2.203125 -1.25q-0.75 -1.375 -0.75 -4.640625l0 -3.71875q0 -1.265625 -0.34375 -1.96875q-0.171875 -0.328125 -0.78125 -0.96875l1.40625 -3.25q0.75 1.03125 1.046875 2.046875q0.359375 1.1875 0.359375 3.03125l0 2.5625q0 2.71875 0.359375 3.765625q0.28125 0.84375 0.90625 0.84375l1.828125 0l0 3.546875zm16.216309 0q-1.453125 0 -2.421875 -0.203125q-0.96875 -0.21875 -1.90625 -0.671875q-0.75 0.53125 -1.34375 0.703125q-0.59375 0.171875 -1.78125 0.171875l-2.109375 0q-0.875 0 -1.390625 -0.453125q-0.5 -0.453125 -0.90625 -1.515625q-0.71875 1.09375 -1.59375 1.5625q-0.765625 0.40625 -1.8125 0.40625l-1.859375 0l0 -3.546875l1.859375 0q1.359375 0 2.28125 -0.765625q1.171875 -1.0 1.171875 -3.046875l0.859375 0.140625q-0.015625 0.40625 -0.046875 0.953125q-0.03125 0.53125 -0.03125 1.171875q0 0.671875 0.453125 1.109375q0.46875 0.4375 1.046875 0.4375l1.609375 0q1.578125 0 2.265625 -0.4375q0.8125 -0.53125 0.8125 -1.984375q0 -0.3125 0.203125 -0.5625q0.109375 -0.140625 0.46875 -0.4375l0.5 -0.390625q0.03125 0.25 0.03125 0.671875q0.015625 0.421875 0.015625 0.5625q0 0.703125 -0.203125 1.890625q0.484375 0.234375 1.078125 0.40625q0.59375 0.171875 1.265625 0.265625q0 -0.453125 -0.328125 -1.15625q-0.328125 -0.703125 -0.328125 -0.9375q0 -0.34375 0.09375 -0.53125q0.03125 -0.0625 0.28125 -0.40625l1.109375 -1.484375q0.359375 0.8125 0.5 1.484375q0.15625 0.671875 0.15625 1.671875l0 4.921875z" fill-rule="nonzero"/><path fill="#ffffff" d="m667.61096 166.933l-4.796875 2.90625q-4.234375 0 -6.140625 -1.59375q-1.90625 -1.59375 -1.90625 -4.984375q0 -2.375 0.90625 -4.28125q0.921875 -1.921875 2.875 -3.640625q-0.15625 -0.953125 -0.703125 -0.953125q-0.203125 0 -0.328125 0.109375q-0.15625 0.203125 -0.296875 0.359375l-0.625 -0.140625q0 -1.8125 0.8125 -2.984375q0.90625 -1.328125 2.546875 -1.328125q1.453125 0 2.40625 0.8125q0.953125 0.796875 0.953125 2.078125q0 0.765625 -0.390625 1.453125q-0.4375 0.75 -1.171875 1.125q0.640625 0.75 1.578125 1.09375q0.640625 0.234375 1.203125 0.234375l1.828125 0l0 3.546875l-1.828125 0q-1.859375 0 -2.984375 -0.734375q-1.25 -0.796875 -2.25 -2.875q-1.453125 0.96875 -2.25 2.21875q-0.796875 1.234375 -0.796875 2.515625q0 2.3125 2.03125 3.421875q2.046875 1.109375 6.4375 1.109375q0.671875 0 1.421875 -0.015625q0.765625 0 1.390625 -0.03125l0.078125 0.578125zm5.979492 -6.1875l-8.140625 0l0 -3.546875l6.84375 0q-0.140625 -0.875 -0.515625 -1.484375q-0.203125 -0.34375 -0.921875 -1.171875l1.046875 -3.109375q0.96875 1.109375 1.328125 2.328125q0.359375 1.203125 0.359375 3.59375l0 3.390625zm-0.203125 2.296875l-1.4375 2.640625l-1.84375 -1.03125l-1.046875 2.046875l-2.421875 -1.328125l1.359375 -2.515625l1.921875 0.96875l1.09375 -2.109375l2.375 1.328125zm14.28363 -16.28125l-1.5625 2.921875l-3.046875 -1.59375l1.578125 -2.9375l3.03125 1.609375zm6.484375 13.984375l-13.78125 0q-0.921875 0 -1.484375 -0.453125q-0.546875 -0.46875 -0.9375 -1.515625q-0.828125 1.15625 -1.59375 1.578125q-0.6875 0.375 -1.8125 0.375l-1.859375 0.015625l0 -3.546875l1.859375 0q1.5 0 2.28125 -0.765625q0.921875 -0.875 1.171875 -3.046875l0.890625 0.140625q-0.03125 0.46875 -0.046875 0.75q-0.0625 0.859375 -0.0625 1.375q0 0.75 0.390625 1.15625q0.390625 0.390625 1.03125 0.390625q0.640625 0 1.171875 -0.25q0.546875 -0.265625 1.703125 -1.078125l4.65625 -3.34375q0.828125 -0.578125 1.25 -0.828125q0.9375 -0.578125 1.828125 -0.578125q1.453125 0 2.328125 1.03125q1.015625 1.203125 1.015625 3.609375l0 4.984375zm-1.8125 -4.875q0 -0.578125 -0.9375 -0.9375q-0.765625 -0.3125 -1.71875 -0.3125q-0.859375 0 -1.9375 0.5625q-1.0625 0.546875 -3.109375 2.015625l3.40625 0q4.296875 0 4.296875 -1.328125zm6.6273804 1.09375q0 1.15625 -0.28125 2.109375q-0.265625 0.953125 -1.046875 2.5625l-0.78125 -0.3125q0.3125 -1.65625 0.3125 -2.703125q0 -0.796875 -0.125 -2.328125q-0.125 -1.53125 -0.328125 -3.03125q-0.1875 -1.515625 -0.640625 -3.59375q-0.15625 -0.734375 -0.15625 -1.0q0 -0.40625 0.40625 -1.375q0.40625 -0.96875 1.140625 -2.34375l0.78125 4.609375q0.421875 2.625 0.59375 4.546875q0.125 1.484375 0.125 2.859375zm12.997742 2.875q0 2.25 -1.90625 4.4375q-1.90625 2.1875 -3.75 2.1875q-1.078125 0 -2.359375 -0.703125q-1.28125 -0.6875 -3.9375 -2.71875l0.546875 -0.75q1.40625 0.9375 2.296875 1.25q0.75 0.265625 1.6875 0.265625q1.265625 0 2.5 -0.703125q1.453125 -0.84375 3.015625 -2.6875q-0.546875 0.078125 -0.90625 0.078125q-1.296875 0 -2.0625 -0.828125q-0.75 -0.84375 -0.75 -2.296875q0 -1.953125 0.890625 -3.765625q0.984375 -1.953125 2.234375 -1.953125q1.03125 0 1.765625 1.421875q0.734375 1.40625 0.734375 3.421875l0 3.34375zm-1.5625 -2.640625q-0.375 -2.09375 -1.484375 -2.09375q-0.40625 0 -0.65625 0.328125q-0.234375 0.3125 -0.234375 0.6875q0 0.46875 0.515625 0.78125q0.515625 0.296875 1.359375 0.296875l0.5 0zm12.6203 3.53125q-1.359375 0 -3.21875 -0.53125q-1.625 -0.46875 -2.859375 -1.109375q-0.75 1.140625 -1.859375 1.484375q-0.53125 0.171875 -1.453125 0.171875l-2.578125 0l0 -3.546875l2.578125 0q1.171875 0 1.859375 -0.28125q0.875 -0.359375 1.21875 -1.265625q0.75 -1.65625 1.90625 -2.71875q1.015625 -0.953125 1.734375 -0.953125q0.671875 0 1.640625 2.015625q1.03125 2.109375 1.03125 3.890625l0 2.84375zm-2.4375 -3.921875q0 -0.296875 -0.5625 -1.0q-0.625 -0.78125 -1.078125 -0.78125q-0.5 0 -0.859375 1.171875q0.6875 0.265625 1.03125 0.390625q1.0625 0.390625 1.1875 0.390625q0.28125 0 0.28125 -0.171875z" fill-rule="nonzero"/><path fill="#ffffff" d="m739.8313 149.8705l-1.5625 2.90625l-3.046875 -1.578125l1.578125 -2.953125l3.03125 1.625zm4.28125 10.234375q0 1.796875 -0.359375 2.890625q-0.34375 1.078125 -1.140625 1.734375q-0.796875 0.671875 -2.34375 1.09375q-1.546875 0.421875 -3.1875 0.421875q-3.15625 0 -4.875 -1.15625q-1.703125 -1.140625 -1.703125 -3.265625q0 -1.8125 0.546875 -3.3125q0.59375 -1.640625 2.34375 -4.28125l0.78125 0.546875q-1.296875 2.1875 -1.703125 3.1875q-0.390625 0.984375 -0.390625 2.03125q0 1.375 1.46875 2.25q1.46875 0.859375 3.84375 0.859375q2.34375 0 3.9375 -0.890625q1.609375 -0.90625 1.609375 -2.21875q0 -0.796875 -0.28125 -1.59375q-0.28125 -0.796875 -1.203125 -2.53125l1.140625 -3.515625q0.921875 1.640625 1.125 2.265625q0.390625 1.140625 0.390625 2.890625l0 2.59375zm11.062073 0.625q-1.359375 0 -3.21875 -0.53125q-1.625 -0.46875 -2.859375 -1.109375q-0.75 1.140625 -1.859375 1.484375q-0.53125 0.171875 -1.453125 0.171875l-2.578125 0l0 -3.546875l2.578125 0q1.171875 0 1.859375 -0.28125q0.875 -0.359375 1.21875 -1.265625q0.75 -1.65625 1.90625 -2.71875q1.015625 -0.953125 1.734375 -0.953125q0.671875 0 1.640625 2.015625q1.03125 2.109375 1.03125 3.890625l0 2.84375zm-2.4375 -3.921875q0 -0.296875 -0.5625 -1.0q-0.625 -0.78125 -1.078125 -0.78125q-0.5 0 -0.859375 1.171875q0.6875 0.265625 1.03125 0.390625q1.0625 0.390625 1.1875 0.390625q0.28125 0 0.28125 -0.171875z" fill-rule="nonzero"/><path fill="#ffffff" d="m771.98016 149.8705l-1.5625 2.90625l-3.046875 -1.578125l1.578125 -2.953125l3.03125 1.625zm4.28125 10.234375q0 1.796875 -0.359375 2.890625q-0.34375 1.078125 -1.140625 1.734375q-0.796875 0.671875 -2.34375 1.09375q-1.546875 0.421875 -3.1875 0.421875q-3.15625 0 -4.875 -1.15625q-1.703125 -1.140625 -1.703125 -3.265625q0 -1.8125 0.546875 -3.3125q0.59375 -1.640625 2.34375 -4.28125l0.78125 0.546875q-1.296875 2.1875 -1.703125 3.1875q-0.390625 0.984375 -0.390625 2.03125q0 1.375 1.46875 2.25q1.46875 0.859375 3.84375 0.859375q2.34375 0 3.9375 -0.890625q1.609375 -0.90625 1.609375 -2.21875q0 -0.796875 -0.28125 -1.59375q-0.28125 -0.796875 -1.203125 -2.53125l1.140625 -3.515625q0.921875 1.640625 1.125 2.265625q0.390625 1.140625 0.390625 2.890625l0 2.59375zm7.2339478 0.640625l-8.140625 0l0 -3.546875l6.84375 0q-0.140625 -0.875 -0.515625 -1.484375q-0.203125 -0.34375 -0.921875 -1.171875l1.046875 -3.109375q0.96875 1.109375 1.328125 2.328125q0.359375 1.203125 0.359375 3.59375l0 3.390625zm-0.203125 2.296875l-1.4375 2.640625l-1.84375 -1.03125l-1.046875 2.046875l-2.421875 -1.328125l1.359375 -2.515625l1.921875 0.96875l1.09375 -2.109375l2.375 1.328125zm11.736755 -2.0q0 0.796875 -0.921875 2.109375q-0.90625 1.296875 -2.125 2.265625q-1.359375 1.0625 -2.3125 1.0625q-1.140625 0 -2.46875 -0.640625q-1.140625 -0.5625 -3.578125 -2.25l0.546875 -0.796875q1.171875 0.78125 1.890625 1.0625q0.71875 0.265625 1.546875 0.265625q0.90625 0 1.796875 -0.5q0.90625 -0.515625 2.453125 -1.90625q2.15625 -1.921875 2.15625 -2.96875q0 -0.515625 -0.421875 -1.359375q-0.46875 -0.96875 -1.140625 -1.59375l0.734375 -3.515625q0.875 0.90625 1.359375 2.09375q0.484375 1.1875 0.484375 2.6875l0 3.984375zm6.2507324 -0.296875l-1.828125 0q-1.515625 0 -2.203125 -1.25q-0.75 -1.375 -0.75 -4.640625l0 -3.71875q0 -1.265625 -0.34375 -1.96875q-0.171875 -0.328125 -0.78125 -0.96875l1.40625 -3.25q0.75 1.03125 1.046875 2.046875q0.359375 1.1875 0.359375 3.03125l0 2.5625q0 2.71875 0.359375 3.765625q0.28125 0.84375 0.90625 0.84375l1.828125 0l0 3.546875zm11.060059 -0.015625q-1.359375 0 -3.21875 -0.53125q-1.625 -0.46875 -2.859375 -1.109375q-0.75 1.140625 -1.859375 1.484375q-0.53125 0.171875 -1.453125 0.171875l-2.578125 0l0 -3.546875l2.578125 0q1.171875 0 1.859375 -0.28125q0.875 -0.359375 1.21875 -1.265625q0.75 -1.65625 1.90625 -2.71875q1.015625 -0.953125 1.734375 -0.953125q0.671875 0 1.640625 2.015625q1.03125 2.109375 1.03125 3.890625l0 2.84375zm-2.4375 -3.921875q0 -0.296875 -0.5625 -1.0q-0.625 -0.78125 -1.078125 -0.78125q-0.5 0 -0.859375 1.171875q0.6875 0.265625 1.03125 0.390625q1.0625 0.390625 1.1875 0.390625q0.28125 0 0.28125 -0.171875zm9.4696045 -9.984375l-1.4375 2.65625l-1.84375 -1.03125l-1.046875 2.046875l-2.421875 -1.328125l1.359375 -2.515625l1.921875 0.953125l1.09375 -2.109375l2.375 1.328125zm0.203125 13.921875l-8.140625 0l0 -3.546875l6.84375 0q-0.140625 -0.875 -0.515625 -1.484375q-0.203125 -0.34375 -0.921875 -1.171875l1.046875 -3.109375q0.96875 1.109375 1.328125 2.328125q0.359375 1.203125 0.359375 3.59375l0 3.390625z" fill-rule="nonzero"/><path fill="#38761d" d="m414.29922 0l109.82675 0l0 72.44095l-109.82675 0z" fill-rule="evenodd"/><path stroke="#274e13" stroke-width="1.0" stroke-linejoin="round" stroke-linecap="butt" d="m414.29922 0l109.82675 0l0 72.44095l-109.82675 0z" fill-rule="evenodd"/><path fill="#ff0000" d="m414.29922 0l109.82675 0l0 16.72441l-109.82675 0z" fill-rule="evenodd"/><path stroke="#000000" stroke-width="1.0" stroke-linejoin="round" stroke-linecap="butt" d="m414.29922 0l109.82675 0l0 16.72441l-109.82675 0z" fill-rule="evenodd"/><path fill="#ff0000" d="m414.29922 57.228348l109.82675 0l0 16.724411l-109.82675 0z" fill-rule="evenodd"/><path stroke="#000000" stroke-width="1.0" stroke-linejoin="round" stroke-linecap="butt" d="m414.29922 57.228348l109.82675 0l0 16.724411l-109.82675 0z" fill-rule="evenodd"/><path fill="#ffff00" d="m489.8221 30.681293l0 0c0 8.349503 -7.2691956 15.118111 -16.236206 15.118111c-8.9670105 0 -16.236237 -6.768608 -16.236237 -15.118111l0 0c2.2062378 6.6246643 8.787384 11.140232 16.236237 11.140232c7.448822 0 14.029999 -4.515568 16.236206 -11.140232z" fill-rule="evenodd"/><path stroke="#000000" stroke-width="1.0" stroke-linejoin="round" stroke-linecap="butt" d="m489.8221 30.681293l0 0c0 8.349503 -7.2691956 15.118111 -16.236206 15.118111c-8.9670105 0 -16.236237 -6.768608 -16.236237 -15.118111l0 0c2.2062378 6.6246643 8.787384 11.140232 16.236237 11.140232c7.448822 0 14.029999 -4.515568 16.236206 -11.140232z" fill-rule="evenodd"/><path fill="#ffff00" d="m477.89285 34.718388l-3.8497314 -2.6707878l-3.5596008 2.6033936l1.1803894 -4.2539806l-3.849762 -2.6707363l4.5792236 0.04168129l1.1803589 -4.2539997l1.6497192 4.2797413l4.579254 0.041620255l-3.5596619 2.603344z" fill-rule="evenodd"/><path stroke="#000000" stroke-width="1.0" stroke-linejoin="round" stroke-linecap="butt" d="m477.89285 34.718388l-3.8497314 -2.6707878l-3.5596008 2.6033936l1.1803894 -4.2539806l-3.849762 -2.6707363l4.5792236 0.04168129l1.1803589 -4.2539997l1.6497192 4.2797413l4.579254 0.041620255l-3.5596619 2.603344z" fill-rule="evenodd"/><path fill="#ffffff" d="m28.829737 56.478928l30.229994 -0.040039062l17.329063 -18.22768l-17.329063 -18.18177l-30.229994 0.040039062l17.329062 18.181774z" fill-rule="evenodd"/><path stroke="#000000" stroke-width="1.0" stroke-linejoin="round" stroke-linecap="butt" d="m28.829737 56.478928l30.229994 -0.040039062l17.329063 -18.22768l-17.329063 -18.18177l-30.229994 0.040039062l17.329062 18.181774z" fill-rule="evenodd"/><path fill="#000000" fill-opacity="0.0" d="m90.71916 16.834646l317.60632 0l0 46.866142l-317.60632 0z" fill-rule="evenodd"/><path fill="#ffffff" d="m108.76604 47.813393q-2.390625 0 -4.1875 -0.96875q-1.78125 -0.96875 -2.765625 -2.625q-0.984375 -1.671875 -0.984375 -3.78125q0 -1.703125 0.671875 -3.15625q0.6875 -1.453125 1.84375 -2.546875q1.171875 -1.09375 2.65625 -1.703125q1.484375 -0.609375 3.125 -0.609375q1.203125 0 1.984375 0.140625q0.796875 0.125 1.421875 0.375q0.640625 0.25 1.28125 0.5625l0.25 4.234375l-0.40625 0l-2.15625 -3.5q-0.5625 -0.375 -1.0625 -0.53125q-0.5 -0.15625 -1.203125 -0.15625q-1.375 0 -2.484375 0.828125q-1.09375 0.828125 -1.734375 2.34375q-0.625 1.5 -0.625 3.484375q0 1.96875 0.609375 3.421875q0.609375 1.4375 1.65625 2.21875q1.0625 0.78125 2.375 0.78125q0.84375 0 1.5 -0.21875q0.671875 -0.21875 1.28125 -0.5625l2.046875 -3.03125l0.375 0l-0.3125 3.828125q-0.921875 0.546875 -2.234375 0.859375q-1.296875 0.3125 -2.921875 0.3125zm13.264816 0q-1.609375 0 -2.828125 -0.734375q-1.21875 -0.734375 -1.90625 -1.953125q-0.671875 -1.21875 -0.671875 -2.703125q0 -1.484375 0.671875 -2.703125q0.6875 -1.234375 1.90625 -1.953125q1.21875 -0.734375 2.828125 -0.734375q1.609375 0 2.8125 0.734375q1.21875 0.71875 1.890625 1.953125q0.6875 1.21875 0.6875 2.703125q0 1.484375 -0.6875 2.703125q-0.671875 1.21875 -1.890625 1.953125q-1.203125 0.734375 -2.8125 0.734375zm0.25 -1.109375q0.65625 0 1.078125 -0.53125q0.421875 -0.53125 0.609375 -1.40625q0.203125 -0.890625 0.203125 -1.890625q0 -1.21875 -0.25 -2.296875q-0.234375 -1.09375 -0.75 -1.765625q-0.5 -0.6875 -1.34375 -0.6875q-0.671875 0 -1.109375 0.53125q-0.421875 0.53125 -0.625 1.40625q-0.203125 0.875 -0.203125 1.890625q0 1.25 0.234375 2.328125q0.25 1.0625 0.78125 1.75q0.546875 0.671875 1.375 0.671875zm10.877319 1.109375q-1.359375 0 -2.234375 -0.6875q-0.875 -0.703125 -0.875 -2.09375l0 -6.6875l-1.484375 -0.71875l0 -0.359375l4.6875 0l0 6.84375q0 0.78125 0.453125 1.203125q0.453125 0.421875 1.15625 0.421875q0.421875 0 0.890625 -0.15625q0.484375 -0.15625 0.828125 -0.4375l0 -6.796875l-1.359375 -0.71875l0 -0.359375l4.546875 0l0 9.265625l1.4375 0.703125l0 0.359375l-4.625 0l0 -1.453125l-0.09375 0q-0.796875 0.796875 -1.546875 1.234375q-0.734375 0.4375 -1.78125 0.4375zm9.179657 -0.21875l0 -0.359375l1.5 -0.734375l0 -6.75l-1.4375 -1.0625l0 -0.265625l4.125 -1.390625l0.265625 0l0.21875 2.046875l0.109375 0q0.546875 -0.859375 0.96875 -1.296875q0.4375 -0.453125 0.8125 -0.59375q0.390625 -0.15625 0.84375 -0.15625q0.1875 0 0.421875 0.0625q0.234375 0.0625 0.421875 0.125q0.671875 0.203125 0.671875 0.640625q0 0.203125 -0.09375 0.375l-0.53125 1.46875l-0.171875 0l-0.578125 -0.203125q-0.59375 -0.203125 -1.203125 -0.203125q-0.953125 0 -1.65625 0.890625l0 6.3125l1.828125 0.734375l0 0.359375l-6.515625 0zm13.613266 0.21875q-1.109375 0 -1.9375 -0.21875q-0.828125 -0.203125 -1.625 -0.59375l0 -2.625l0.34375 0l0.796875 1.1875q0.84375 1.265625 2.328125 1.265625q1.765625 0 1.765625 -1.296875q0 -0.46875 -0.25 -0.765625q-0.25 -0.296875 -0.8125 -0.5625q-0.546875 -0.28125 -1.515625 -0.6875q-1.265625 -0.515625 -1.875 -1.21875q-0.609375 -0.703125 -0.609375 -1.75q0 -0.96875 0.5 -1.765625q0.515625 -0.796875 1.390625 -1.265625q0.890625 -0.484375 2.0 -0.484375q0.765625 0 1.5 0.171875q0.734375 0.15625 1.4375 0.515625l0 2.6875l-0.328125 0l-0.703125 -1.0625q-0.4375 -0.65625 -0.890625 -0.96875q-0.453125 -0.3125 -1.078125 -0.3125q-0.6875 0 -1.109375 0.34375q-0.421875 0.328125 -0.421875 0.9375q0 0.40625 0.1875 0.703125q0.203125 0.28125 0.703125 0.546875q0.5 0.265625 1.421875 0.640625q0.640625 0.25 1.265625 0.578125q0.625 0.328125 1.03125 0.921875q0.421875 0.59375 0.421875 1.671875q0 1.0625 -0.5625 1.828125q-0.5625 0.765625 -1.46875 1.171875q-0.890625 0.40625 -1.90625 0.40625zm16.721054 0q-2.328125 0 -3.6875 -1.34375q-1.34375 -1.34375 -1.34375 -3.5625q0 -1.71875 0.75 -3.046875q0.75 -1.328125 2.015625 -2.078125q1.265625 -0.75 2.828125 -0.75q1.84375 0 2.859375 1.234375q1.015625 1.21875 1.046875 3.453125l-0.09375 0.125l-6.34375 0l0 0.109375q0 0.953125 0.359375 1.734375q0.359375 0.78125 1.140625 1.234375q0.78125 0.453125 2.03125 0.453125q0.65625 0 1.359375 -0.15625q0.71875 -0.15625 1.5 -0.546875l0.0625 0l0 0.359375q-0.5625 1.203125 -1.734375 2.0q-1.171875 0.78125 -2.75 0.78125zm0.046875 -9.75q-0.796875 0 -1.3125 0.71875q-0.5 0.71875 -0.640625 2.03125l3.828125 0q-0.15625 -1.5625 -0.640625 -2.15625q-0.484375 -0.59375 -1.234375 -0.59375zm10.299973 9.75q-1.375 0 -2.265625 -0.578125q-0.875 -0.59375 -0.875 -1.65625l0 -7.296875l-1.640625 0l0 -0.3125l2.09375 -0.703125l2.28125 -2.5l0.4375 0l0 2.5l3.140625 0l0 1.015625l-3.140625 0l0 6.734375q0 0.578125 0.5 0.859375q0.5 0.265625 1.171875 0.265625q0.4375 0 0.765625 -0.046875q0.328125 -0.0625 0.640625 -0.125l0.0625 0.046875l0 0.375q-0.375 0.546875 -1.234375 0.984375q-0.859375 0.4375 -1.9375 0.4375zm10.112473 -0.21875l0 -0.359375l1.515625 -0.734375l0 -6.875l-1.453125 -0.9375l0 -0.265625l4.125 -1.390625l0.28125 0l0.203125 1.6875l0.109375 0q0.796875 -0.796875 1.53125 -1.234375q0.75 -0.453125 1.796875 -0.453125q1.109375 0 1.90625 0.484375q0.796875 0.46875 1.046875 1.421875l0.078125 0q0.859375 -0.90625 1.640625 -1.40625q0.78125 -0.5 1.90625 -0.5q1.328125 0 2.1875 0.703125q0.859375 0.703125 0.859375 2.09375l0 6.671875l1.5 0.734375l0 0.359375l-5.84375 0l0 -0.359375l1.15625 -0.734375l0 -5.75q0 -0.796875 -0.453125 -1.203125q-0.4375 -0.421875 -1.140625 -0.421875q-0.5 0 -0.96875 0.1875q-0.46875 0.171875 -0.8125 0.515625l0 0l0 6.671875l1.125 0.734375l0 0.359375l-5.4375 0l0 -0.359375l1.109375 -0.734375l0 -5.75q0 -0.796875 -0.4375 -1.203125q-0.4375 -0.421875 -1.140625 -0.421875q-0.40625 0 -0.890625 0.15625q-0.46875 0.15625 -0.8125 0.421875l0 6.796875l1.09375 0.734375l0 0.359375l-5.78125 0zm23.086655 0.203125q-1.109375 0 -1.90625 -0.65625q-0.796875 -0.671875 -0.75 -1.953125q0 -0.8125 0.3125 -1.390625q0.328125 -0.578125 1.109375 -1.0q0.796875 -0.4375 2.234375 -0.796875l2.125 -0.515625l0 -1.40625q0 -0.859375 -0.53125 -1.375q-0.515625 -0.53125 -1.328125 -0.53125q-0.71875 0 -1.046875 0.3125q-0.3125 0.3125 -0.3125 0.953125l0 1.046875l-0.09375 0.09375l-1.484375 0q-0.34375 0 -0.484375 -0.15625q-0.140625 -0.171875 -0.140625 -0.546875q0 -0.5 0.390625 -0.96875q0.40625 -0.484375 1.0625 -0.890625q0.8125 -0.53125 1.53125 -0.75q0.71875 -0.234375 1.546875 -0.234375q1.125 0 2.046875 0.296875q0.921875 0.296875 1.46875 0.953125q0.5625 0.640625 0.5625 1.65625l0 5.984375q0.375 0.359375 1.09375 0.359375l0.65625 0l0.0625 0.0625l0 0.328125q-0.234375 0.421875 -0.84375 0.78125q-0.59375 0.359375 -1.546875 0.359375q-0.953125 0 -1.5625 -0.390625q-0.59375 -0.390625 -0.90625 -1.140625l-0.140625 0q-0.5625 0.640625 -1.359375 1.078125q-0.796875 0.4375 -1.765625 0.4375zm0.34375 -3.234375q0 0.71875 0.390625 1.078125q0.390625 0.34375 1.09375 0.34375q0.625 0 1.296875 -0.265625l0 -3.328125q-1.125 0.234375 -1.734375 0.53125q-0.59375 0.296875 -0.828125 0.6875q-0.21875 0.375 -0.21875 0.953125zm12.879669 3.25q-1.375 0 -2.265625 -0.578125q-0.875 -0.59375 -0.875 -1.65625l0 -7.296875l-1.640625 0l0 -0.3125l2.09375 -0.703125l2.28125 -2.5l0.4375 0l0 2.5l3.140625 0l0 1.015625l-3.140625 0l0 6.734375q0 0.578125 0.5 0.859375q0.5 0.265625 1.171875 0.265625q0.4375 0 0.765625 -0.046875q0.328125 -0.0625 0.640625 -0.125l0.0625 0.046875l0 0.375q-0.375 0.546875 -1.234375 0.984375q-0.859375 0.4375 -1.9375 0.4375zm7.5578003 -13.015625q-0.734375 0 -1.203125 -0.46875q-0.453125 -0.46875 -0.453125 -1.171875q0 -0.71875 0.453125 -1.1718731q0.46875 -0.46875 1.203125 -0.46875q0.71875 0 1.171875 0.46875q0.46875 0.4531231 0.46875 1.1718731q0 0.703125 -0.46875 1.171875q-0.453125 0.46875 -1.171875 0.46875zm-3.0625 12.796875l0 -0.359375l1.515625 -0.734375l0 -6.875l-1.453125 -1.078125l0 -0.265625l4.375 -1.25l0.265625 0l0 9.46875l1.34375 0.734375l0 0.359375l-6.046875 0zm12.685135 0.21875q-2.328125 0 -3.6875 -1.34375q-1.34375 -1.34375 -1.34375 -3.5625q0 -1.71875 0.75 -3.046875q0.75 -1.328125 2.015625 -2.078125q1.265625 -0.75 2.828125 -0.75q1.84375 0 2.859375 1.234375q1.015625 1.21875 1.046875 3.453125l-0.09375 0.125l-6.34375 0l0 0.109375q0 0.953125 0.359375 1.734375q0.359375 0.78125 1.140625 1.234375q0.78125 0.453125 2.03125 0.453125q0.65625 0 1.359375 -0.15625q0.71875 -0.15625 1.5 -0.546875l0.0625 0l0 0.359375q-0.5625 1.203125 -1.734375 2.0q-1.171875 0.78125 -2.75 0.78125zm0.046875 -9.75q-0.796875 0 -1.3125 0.71875q-0.5 0.71875 -0.640625 2.03125l3.828125 0q-0.15625 -1.5625 -0.640625 -2.15625q-0.484375 -0.59375 -1.234375 -0.59375zm-0.171875 -2.46875l-2.96875 -2.453125q-0.515625 -0.4375 -0.71875 -0.78125q-0.1875 -0.359375 -0.1875 -0.7812481l2.5 0l1.875 4.015623l-0.5 0zm6.2218475 12.0l0 -0.359375l1.5 -0.734375l0 -6.75l-1.4375 -1.0625l0 -0.265625l4.1249847 -1.390625l0.265625 0l0.21875 2.046875l0.109375 0q0.546875 -0.859375 0.96875 -1.296875q0.4375 -0.453125 0.8125 -0.59375q0.390625 -0.15625 0.84375 -0.15625q0.1875 0 0.421875 0.0625q0.234375 0.0625 0.421875 0.125q0.671875 0.203125 0.671875 0.640625q0 0.203125 -0.09375 0.375l-0.53125 1.46875l-0.171875 0l-0.578125 -0.203125q-0.59375 -0.203125 -1.203125 -0.203125q-0.953125 0 -1.65625 0.890625l0 6.3125l1.828125 0.734375l0 0.359375l-6.5156097 0zm14.769516 0.21875q-2.328125 0 -3.6875 -1.34375q-1.34375 -1.34375 -1.34375 -3.5625q0 -1.71875 0.75 -3.046875q0.75 -1.328125 2.015625 -2.078125q1.265625 -0.75 2.828125 -0.75q1.84375 0 2.859375 1.234375q1.015625 1.21875 1.046875 3.453125l-0.09375 0.125l-6.34375 0l0 0.109375q0 0.953125 0.359375 1.734375q0.359375 0.78125 1.140625 1.234375q0.78125 0.453125 2.03125 0.453125q0.65625 0 1.359375 -0.15625q0.71875 -0.15625 1.5 -0.546875l0.0625 0l0 0.359375q-0.5625 1.203125 -1.734375 2.0q-1.171875 0.78125 -2.75 0.78125zm0.046875 -9.75q-0.796875 0 -1.3125 0.71875q-0.5 0.71875 -0.640625 2.03125l3.828125 0q-0.15625 -1.5625 -0.640625 -2.15625q-0.484375 -0.59375 -1.234375 -0.59375zm10.034332 9.75q-1.109375 0 -1.9375 -0.21875q-0.828125 -0.203125 -1.625 -0.59375l0 -2.625l0.34375 0l0.796875 1.1875q0.84375 1.265625 2.328125 1.265625q1.765625 0 1.765625 -1.296875q0 -0.46875 -0.25 -0.765625q-0.25 -0.296875 -0.8125 -0.5625q-0.546875 -0.28125 -1.515625 -0.6875q-1.265625 -0.515625 -1.875 -1.21875q-0.609375 -0.703125 -0.609375 -1.75q0 -0.96875 0.5 -1.765625q0.515625 -0.796875 1.390625 -1.265625q0.890625 -0.484375 2.0 -0.484375q0.765625 0 1.5 0.171875q0.734375 0.15625 1.4375 0.515625l0 2.6875l-0.328125 0l-0.703125 -1.0625q-0.4375 -0.65625 -0.890625 -0.96875q-0.453125 -0.3125 -1.078125 -0.3125q-0.6875 0 -1.109375 0.34375q-0.421875 0.328125 -0.421875 0.9375q0 0.40625 0.1875 0.703125q0.203125 0.28125 0.703125 0.546875q0.5 0.265625 1.421875 0.640625q0.640625 0.25 1.265625 0.578125q0.625 0.328125 1.03125 0.921875q0.421875 0.59375 0.421875 1.671875q0 1.0625 -0.5625 1.828125q-0.5625 0.765625 -1.46875 1.171875q-0.890625 0.40625 -1.90625 0.40625zm15.361694 0q-1.0 0 -1.875 -0.5625q-0.859375 -0.5625 -1.40625 -1.59375q-0.53125 -1.046875 -0.53125 -2.484375q0 -1.875 0.671875 -3.25q0.6875 -1.390625 1.890625 -2.140625q1.203125 -0.75 2.765625 -0.75q1.09375 0 1.875 0.203125l0 -4.046875l-1.5625 -1.09375l0 -0.2499981l4.46875 -1.234375l0.265625 0l0 15.968748l1.59375 0.65625l0 0.359375l-4.53125 0l-0.1875 -1.125l-0.15625 0q-0.828125 0.71875 -1.609375 1.03125q-0.765625 0.3125 -1.671875 0.3125zm-0.609375 -5.34375q0 1.8125 0.765625 2.65625q0.765625 0.84375 1.71875 0.84375q0.40625 0 0.75 -0.109375q0.359375 -0.125 0.765625 -0.34375l0 -6.578125q-0.28125 -0.34375 -0.671875 -0.515625q-0.390625 -0.1875 -0.859375 -0.1875q-0.65625 0 -1.234375 0.375q-0.5625 0.359375 -0.90625 1.28125q-0.328125 0.90625 -0.328125 2.578125zm15.177307 5.34375q-2.328125 0 -3.6875 -1.34375q-1.34375 -1.34375 -1.34375 -3.5625q0 -1.71875 0.75 -3.046875q0.75 -1.328125 2.015625 -2.078125q1.265625 -0.75 2.828125 -0.75q1.84375 0 2.859375 1.234375q1.015625 1.21875 1.046875 3.453125l-0.09375 0.125l-6.34375 0l0 0.109375q0 0.953125 0.359375 1.734375q0.359375 0.78125 1.140625 1.234375q0.78125 0.453125 2.03125 0.453125q0.65625 0 1.359375 -0.15625q0.71875 -0.15625 1.5 -0.546875l0.0625 0l0 0.359375q-0.5625 1.203125 -1.734375 2.0q-1.171875 0.78125 -2.75 0.78125zm0.046875 -9.75q-0.796875 0 -1.3125 0.71875q-0.5 0.71875 -0.640625 2.03125l3.828125 0q-0.15625 -1.5625 -0.640625 -2.15625q-0.484375 -0.59375 -1.234375 -0.59375zm15.698395 9.75q-1.109375 0 -1.9375 -0.21875q-0.828125 -0.203125 -1.625 -0.59375l0 -2.625l0.34375 0l0.796875 1.1875q0.84375 1.265625 2.328125 1.265625q1.765625 0 1.765625 -1.296875q0 -0.46875 -0.25 -0.765625q-0.25 -0.296875 -0.8125 -0.5625q-0.546875 -0.28125 -1.515625 -0.6875q-1.265625 -0.515625 -1.875 -1.21875q-0.609375 -0.703125 -0.609375 -1.75q0 -0.96875 0.5 -1.765625q0.515625 -0.796875 1.390625 -1.265625q0.890625 -0.484375 2.0 -0.484375q0.765625 0 1.5 0.171875q0.734375 0.15625 1.4375 0.515625l0 2.6875l-0.328125 0l-0.703125 -1.0625q-0.4375 -0.65625 -0.890625 -0.96875q-0.453125 -0.3125 -1.078125 -0.3125q-0.6875 0 -1.109375 0.34375q-0.421875 0.328125 -0.421875 0.9375q0 0.40625 0.1875 0.703125q0.203125 0.28125 0.703125 0.546875q0.5 0.265625 1.421875 0.640625q0.640625 0.25 1.265625 0.578125q0.625 0.328125 1.03125 0.921875q0.421875 0.59375 0.421875 1.671875q0 1.0625 -0.5625 1.828125q-0.5625 0.765625 -1.46875 1.171875q-0.890625 0.40625 -1.90625 0.40625zm11.369507 0q-1.609375 0 -2.828125 -0.734375q-1.21875 -0.734375 -1.90625 -1.953125q-0.671875 -1.21875 -0.671875 -2.703125q0 -1.484375 0.671875 -2.703125q0.6875 -1.234375 1.90625 -1.953125q1.21875 -0.734375 2.828125 -0.734375q1.609375 0 2.8125 0.734375q1.21875 0.71875 1.890625 1.953125q0.6875 1.21875 0.6875 2.703125q0 1.484375 -0.6875 2.703125q-0.671875 1.21875 -1.890625 1.953125q-1.203125 0.734375 -2.8125 0.734375zm0.25 -1.109375q0.65625 0 1.078125 -0.53125q0.421875 -0.53125 0.609375 -1.40625q0.203125 -0.890625 0.203125 -1.890625q0 -1.21875 -0.25 -2.296875q-0.234375 -1.09375 -0.75 -1.765625q-0.5 -0.6875 -1.34375 -0.6875q-0.671875 0 -1.109375 0.53125q-0.421875 0.53125 -0.625 1.40625q-0.203125 0.875 -0.203125 1.890625q0 1.25 0.234375 2.328125q0.25 1.0625 0.78125 1.75q0.546875 0.671875 1.375 0.671875zm10.877319 1.109375q-1.359375 0 -2.234375 -0.6875q-0.875 -0.703125 -0.875 -2.09375l0 -6.6875l-1.484375 -0.71875l0 -0.359375l4.6875 0l0 6.84375q0 0.78125 0.453125 1.203125q0.453125 0.421875 1.15625 0.421875q0.421875 0 0.890625 -0.15625q0.484375 -0.15625 0.828125 -0.4375l0 -6.796875l-1.359375 -0.71875l0 -0.359375l4.546875 0l0 9.265625l1.4375 0.703125l0 0.359375l-4.625 0l0 -1.453125l-0.09375 0q-0.796875 0.796875 -1.546875 1.234375q-0.734375 0.4375 -1.78125 0.4375zm13.429657 0q-1.375 0 -2.265625 -0.578125q-0.875 -0.59375 -0.875 -1.65625l0 -7.296875l-1.640625 0l0 -0.3125l2.09375 -0.703125l2.28125 -2.5l0.4375 0l0 2.5l3.140625 0l0 1.015625l-3.140625 0l0 6.734375q0 0.578125 0.5 0.859375q0.5 0.265625 1.171875 0.265625q0.4375 0 0.765625 -0.046875q0.328125 -0.0625 0.640625 -0.125l0.0625 0.046875l0 0.375q-0.375 0.546875 -1.234375 0.984375q-0.859375 0.4375 -1.9375 0.4375zm7.5578003 -13.015625q-0.734375 0 -1.203125 -0.46875q-0.453125 -0.46875 -0.453125 -1.171875q0 -0.71875 0.453125 -1.1718731q0.46875 -0.46875 1.203125 -0.46875q0.71875 0 1.171875 0.46875q0.46875 0.4531231 0.46875 1.1718731q0 0.703125 -0.46875 1.171875q-0.453125 0.46875 -1.171875 0.46875zm-3.0625 12.796875l0 -0.359375l1.515625 -0.734375l0 -6.875l-1.453125 -1.078125l0 -0.265625l4.375 -1.25l0.265625 0l0 9.46875l1.34375 0.734375l0 0.359375l-6.046875 0zm12.68512 0.21875q-2.328125 0 -3.6875 -1.34375q-1.34375 -1.34375 -1.34375 -3.5625q0 -1.71875 0.75 -3.046875q0.75 -1.328125 2.015625 -2.078125q1.265625 -0.75 2.828125 -0.75q1.84375 0 2.859375 1.234375q1.015625 1.21875 1.046875 3.453125l-0.09375 0.125l-6.34375 0l0 0.109375q0 0.953125 0.359375 1.734375q0.359375 0.78125 1.140625 1.234375q0.78125 0.453125 2.03125 0.453125q0.65625 0 1.359375 -0.15625q0.71875 -0.15625 1.5 -0.546875l0.0625 0l0 0.359375q-0.5625 1.203125 -1.734375 2.0q-1.171875 0.78125 -2.75 0.78125zm0.046875 -9.75q-0.796875 0 -1.3125 0.71875q-0.5 0.71875 -0.640625 2.03125l3.828125 0q-0.15625 -1.5625 -0.640625 -2.15625q-0.484375 -0.59375 -1.234375 -0.59375zm6.003113 9.53125l0 -0.359375l1.515625 -0.734375l0 -6.875l-1.453125 -0.9375l0 -0.265625l4.125 -1.390625l0.28125 0l0.203125 1.6875l0.109375 0q0.8125 -0.796875 1.578125 -1.234375q0.78125 -0.453125 1.8125 -0.453125q1.390625 0 2.25 0.703125q0.875 0.703125 0.875 2.09375l0 6.671875l1.53125 0.734375l0 0.359375l-5.84375 0l0 -0.359375l1.125 -0.734375l0 -5.75q0 -0.796875 -0.46875 -1.203125q-0.453125 -0.421875 -1.15625 -0.421875q-0.4375 0 -0.953125 0.15625q-0.5 0.15625 -0.84375 0.453125l0 6.765625l1.15625 0.734375l0 0.359375l-5.84375 0z" fill-rule="nonzero"/><path fill="#ffffff" d="m28.829737 116.6994l30.229994 -0.040039062l17.329063 -18.227684l-17.329063 -18.18177l-30.229994 0.040039062l17.329062 18.181778z" fill-rule="evenodd"/><path stroke="#000000" stroke-width="1.0" stroke-linejoin="round" stroke-linecap="butt" d="m28.829737 116.6994l30.229994 -0.040039062l17.329063 -18.227684l-17.329063 -18.18177l-30.229994 0.040039062l17.329062 18.181778z" fill-rule="evenodd"/><path fill="#000000" fill-opacity="0.0" d="m90.71916 79.07612l287.37006 0l0 46.866142l-287.37006 0z" fill-rule="evenodd"/><path fill="#ffffff" d="m100.71916 109.83611l0 -0.359375l1.921875 -0.9375l0 -12.359375l-1.921875 -0.9375l0 -0.359375l12.34375 0l0 3.921875l-0.359375 0l-1.671875 -2.671875l-4.96875 0l0 5.359375l3.484375 0l1.265625 -1.9375l0.375 0l0 5.09375l-0.375 0l-1.265625 -1.90625l-3.484375 0l0 5.84375l5.5 0l1.765625 -3.375l0.375 0l0 4.625l-12.984375 0zm14.835129 0l0 -0.359375l1.171875 -0.703125l3.140625 -3.671875l-3.296875 -4.625l-1.015625 -0.609375l0 -0.359375l6.15625 0l0 0.359375l-1.265625 0.59375l0 0.125l1.71875 2.4375l1.78125 -2.296875l0 -0.140625l-1.15625 -0.71875l0 -0.359375l4.046875 0l0 0.359375l-1.203125 0.703125l-2.828125 3.359375l3.484375 4.9375l0.9375 0.609375l0 0.359375l-6.03125 0l0 -0.359375l1.25 -0.59375l0 -0.140625l-1.96875 -2.75l-1.96875 2.625l0 0.125l1.234375 0.734375l0 0.359375l-4.1875 0zm17.695953 0.21875q-2.328125 0 -3.6875 -1.34375q-1.34375 -1.34375 -1.34375 -3.5625q0 -1.71875 0.75 -3.046875q0.75 -1.328125 2.015625 -2.078125q1.265625 -0.75 2.828125 -0.75q1.84375 0 2.859375 1.234375q1.015625 1.21875 1.046875 3.453125l-0.09375 0.125l-6.34375 0l0 0.109375q0 0.953125 0.359375 1.734375q0.359375 0.78125 1.140625 1.234375q0.78125 0.453125 2.03125 0.453125q0.65625 0 1.359375 -0.15625q0.71875 -0.15625 1.5 -0.546875l0.0625 0l0 0.359375q-0.5625 1.203125 -1.734375 2.0q-1.171875 0.78125 -2.75 0.78125zm0.046875 -9.75q-0.796875 0 -1.3125 0.71875q-0.5 0.71875 -0.640625 2.03125l3.828125 0q-0.15625 -1.5625 -0.640625 -2.15625q-0.484375 -0.59375 -1.234375 -0.59375zm6.0499725 9.53125l0 -0.359375l1.5 -0.734375l0 -6.75l-1.4375 -1.0625l0 -0.265625l4.125 -1.390625l0.265625 0l0.21875 2.046875l0.109375 0q0.546875 -0.859375 0.96875 -1.296875q0.4375 -0.453125 0.8125 -0.59375q0.390625 -0.15625 0.84375 -0.15625q0.1875 0 0.421875 0.0625q0.234375 0.0625 0.421875 0.125q0.671875 0.203125 0.671875 0.640625q0 0.203125 -0.09375 0.375l-0.53125 1.46875l-0.171875 0l-0.578125 -0.203125q-0.59375 -0.203125 -1.203125 -0.203125q-0.953125 0 -1.65625 0.890625l0 6.3125l1.828125 0.734375l0 0.359375l-6.515625 0zm14.628891 0.21875q-1.453125 0 -2.5625 -0.609375q-1.109375 -0.609375 -1.71875 -1.71875q-0.609375 -1.109375 -0.609375 -2.578125q0 -1.71875 0.703125 -3.046875q0.71875 -1.328125 2.0 -2.078125q1.28125 -0.75 2.984375 -0.75q1.0625 0 1.921875 0.296875q0.859375 0.296875 1.296875 0.8125q0.359375 0.4375 0.359375 0.6875q0 0.265625 -0.296875 0.546875l-1.0625 0.90625l-0.15625 0l-0.796875 -1.109375q-0.375 -0.53125 -0.765625 -0.828125q-0.390625 -0.3125 -1.015625 -0.3125q-1.046875 0 -1.578125 1.03125q-0.53125 1.03125 -0.53125 2.75q0 0.984375 0.328125 1.796875q0.34375 0.8125 1.078125 1.296875q0.75 0.46875 1.921875 0.46875q0.640625 0 1.359375 -0.15625q0.71875 -0.15625 1.5 -0.546875l0.0625 0l0 0.359375q-0.5625 1.203125 -1.71875 2.0q-1.140625 0.78125 -2.703125 0.78125zm9.028107 -13.015625q-0.734375 0 -1.203125 -0.46875q-0.453125 -0.46875 -0.453125 -1.171875q0 -0.71875 0.453125 -1.171875q0.46875 -0.46875 1.203125 -0.46875q0.71875 0 1.171875 0.46875q0.46875 0.453125 0.46875 1.171875q0 0.703125 -0.46875 1.171875q-0.453125 0.46875 -1.171875 0.46875zm-3.0625 12.796875l0 -0.359375l1.515625 -0.734375l0 -6.875l-1.453125 -1.078125l0 -0.265625l4.375 -1.25l0.265625 0l0 9.46875l1.34375 0.734375l0 0.359375l-6.046875 0zm12.54451 0.21875q-1.453125 0 -2.5625 -0.609375q-1.109375 -0.609375 -1.71875 -1.71875q-0.609375 -1.109375 -0.609375 -2.578125q0 -1.71875 0.703125 -3.046875q0.71875 -1.328125 2.0 -2.078125q1.28125 -0.75 2.984375 -0.75q1.0625 0 1.921875 0.296875q0.859375 0.296875 1.296875 0.8125q0.359375 0.4375 0.359375 0.6875q0 0.265625 -0.296875 0.546875l-1.0625 0.90625l-0.15625 0l-0.796875 -1.109375q-0.375 -0.53125 -0.765625 -0.828125q-0.390625 -0.3125 -1.015625 -0.3125q-1.046875 0 -1.578125 1.03125q-0.53125 1.03125 -0.53125 2.75q0 0.984375 0.328125 1.796875q0.34375 0.8125 1.078125 1.296875q0.75 0.46875 1.921875 0.46875q0.640625 0 1.359375 -0.15625q0.71875 -0.15625 1.5 -0.546875l0.0625 0l0 0.359375q-0.5625 1.203125 -1.71875 2.0q-1.140625 0.78125 -2.703125 0.78125zm10.97023 0q-2.328125 0 -3.6875 -1.34375q-1.34375 -1.34375 -1.34375 -3.5625q0 -1.71875 0.75 -3.046875q0.75 -1.328125 2.015625 -2.078125q1.265625 -0.75 2.828125 -0.75q1.84375 0 2.859375 1.234375q1.015625 1.21875 1.046875 3.453125l-0.09375 0.125l-6.34375 0l0 0.109375q0 0.953125 0.359375 1.734375q0.359375 0.78125 1.140625 1.234375q0.78125 0.453125 2.03125 0.453125q0.65625 0 1.359375 -0.15625q0.71875 -0.15625 1.5 -0.546875l0.0625 0l0 0.359375q-0.5625 1.203125 -1.734375 2.0q-1.171875 0.78125 -2.75 0.78125zm0.046875 -9.75q-0.796875 0 -1.3125 0.71875q-0.5 0.71875 -0.640625 2.03125l3.828125 0q-0.15625 -1.5625 -0.640625 -2.15625q-0.484375 -0.59375 -1.234375 -0.59375zm10.034348 9.75q-1.109375 0 -1.9375 -0.21875q-0.828125 -0.203125 -1.625 -0.59375l0 -2.625l0.34375 0l0.796875 1.1875q0.84375 1.265625 2.328125 1.265625q1.765625 0 1.765625 -1.296875q0 -0.46875 -0.25 -0.765625q-0.25 -0.296875 -0.8125 -0.5625q-0.546875 -0.28125 -1.515625 -0.6875q-1.265625 -0.515625 -1.875 -1.21875q-0.609375 -0.703125 -0.609375 -1.75q0 -0.96875 0.5 -1.765625q0.515625 -0.796875 1.390625 -1.265625q0.890625 -0.484375 2.0 -0.484375q0.765625 0 1.5 0.171875q0.734375 0.15625 1.4375 0.515625l0 2.6875l-0.328125 0l-0.703125 -1.0625q-0.4375 -0.65625 -0.890625 -0.96875q-0.453125 -0.3125 -1.078125 -0.3125q-0.6875 0 -1.109375 0.34375q-0.421875 0.328125 -0.421875 0.9375q0 0.40625 0.1875 0.703125q0.203125 0.28125 0.703125 0.546875q0.5 0.265625 1.421875 0.640625q0.640625 0.25 1.265625 0.578125q0.625 0.328125 1.03125 0.921875q0.421875 0.59375 0.421875 1.671875q0 1.0625 -0.5625 1.828125q-0.5625 0.765625 -1.46875 1.171875q-0.890625 0.40625 -1.90625 0.40625zm15.361679 0q-1.0 0 -1.875 -0.5625q-0.859375 -0.5625 -1.40625 -1.59375q-0.53125 -1.046875 -0.53125 -2.484375q0 -1.875 0.671875 -3.25q0.6875 -1.390625 1.890625 -2.140625q1.203125 -0.75 2.765625 -0.75q1.09375 0 1.875 0.203125l0 -4.046875l-1.5625 -1.09375l0 -0.25l4.46875 -1.234375l0.265625 0l0 15.96875l1.59375 0.65625l0 0.359375l-4.53125 0l-0.1875 -1.125l-0.15625 0q-0.828125 0.71875 -1.609375 1.03125q-0.765625 0.3125 -1.671875 0.3125zm-0.609375 -5.34375q0 1.8125 0.765625 2.65625q0.765625 0.84375 1.71875 0.84375q0.40625 0 0.75 -0.109375q0.359375 -0.125 0.765625 -0.34375l0 -6.578125q-0.28125 -0.34375 -0.671875 -0.515625q-0.390625 -0.1875 -0.859375 -0.1875q-0.65625 0 -1.234375 0.375q-0.5625 0.359375 -0.90625 1.28125q-0.328125 0.90625 -0.328125 2.578125zm10.411697 -5.640625l0 -0.578125q0.90625 -0.328125 1.359375 -0.828125q0.453125 -0.515625 0.453125 -1.03125q0 -0.90625 -1.0625 -1.484375l-0.71875 -0.375l-0.046875 -0.25l0.65625 -1.265625q0.25 -0.4375 0.515625 -0.4375q0.203125 0 0.546875 0.15625q0.796875 0.453125 1.25 1.109375q0.453125 0.640625 0.453125 1.4375q0 0.625 -0.34375 1.3125q-0.34375 0.671875 -1.09375 1.296875q-0.734375 0.609375 -1.96875 0.9375zm6.963684 10.96875q-1.109375 0 -1.90625 -0.65625q-0.796875 -0.671875 -0.75 -1.953125q0 -0.8125 0.3125 -1.390625q0.328125 -0.578125 1.109375 -1.0q0.796875 -0.4375 2.234375 -0.796875l2.125 -0.515625l0 -1.40625q0 -0.859375 -0.53125 -1.375q-0.515625 -0.53125 -1.328125 -0.53125q-0.71875 0 -1.046875 0.3125q-0.3125 0.3125 -0.3125 0.953125l0 1.046875l-0.09375 0.09375l-1.484375 0q-0.34375 0 -0.484375 -0.15625q-0.140625 -0.171875 -0.140625 -0.546875q0 -0.5 0.390625 -0.96875q0.40625 -0.484375 1.0625 -0.890625q0.8125 -0.53125 1.53125 -0.75q0.71875 -0.234375 1.546875 -0.234375q1.125 0 2.046875 0.296875q0.921875 0.296875 1.46875 0.953125q0.5625 0.640625 0.5625 1.65625l0 5.984375q0.375 0.359375 1.09375 0.359375l0.65625 0l0.0625 0.0625l0 0.328125q-0.234375 0.421875 -0.84375 0.78125q-0.59375 0.359375 -1.546875 0.359375q-0.953125 0 -1.5625 -0.390625q-0.59375 -0.390625 -0.90625 -1.140625l-0.140625 0q-0.5625 0.640625 -1.359375 1.078125q-0.796875 0.4375 -1.765625 0.4375zm0.34375 -3.234375q0 0.71875 0.390625 1.078125q0.390625 0.34375 1.09375 0.34375q0.625 0 1.296875 -0.265625l0 -3.328125q-1.125 0.234375 -1.734375 0.53125q-0.59375 0.296875 -0.828125 0.6875q-0.21875 0.375 -0.21875 0.953125zm8.582794 8.234375l0 -0.359375l1.515625 -0.71875l0 -11.96875l-1.453125 -1.0625l0 -0.265625l4.125 -1.390625l0.28125 0l0.171875 1.390625l0.140625 0q0.84375 -0.734375 1.625 -1.0625q0.78125 -0.328125 1.6875 -0.328125q0.984375 0 1.859375 0.609375q0.875 0.59375 1.390625 1.703125q0.53125 1.109375 0.53125 2.65625q0 1.8125 -0.734375 3.125q-0.71875 1.296875 -1.921875 2.0q-1.203125 0.6875 -2.609375 0.6875q-0.515625 0 -1.0 -0.046875q-0.484375 -0.03125 -0.921875 -0.171875l0 4.125l1.765625 0.71875l0 0.359375l-6.453125 0zm6.203125 -13.90625q-0.40625 0 -0.765625 0.125q-0.34375 0.109375 -0.75 0.328125l0 6.546875q0.65625 0.75 1.796875 0.75q0.53125 0 1.046875 -0.328125q0.515625 -0.34375 0.84375 -1.203125q0.328125 -0.875 0.328125 -2.453125q0 -1.953125 -0.78125 -2.859375q-0.765625 -0.90625 -1.71875 -0.90625zm7.1413727 13.90625l0 -0.359375l1.515625 -0.71875l0 -11.96875l-1.453125 -1.0625l0 -0.265625l4.125 -1.390625l0.28125 0l0.171875 1.390625l0.140625 0q0.84375 -0.734375 1.625 -1.0625q0.78125 -0.328125 1.6875 -0.328125q0.984375 0 1.859375 0.609375q0.875 0.59375 1.390625 1.703125q0.53125 1.109375 0.53125 2.65625q0 1.8125 -0.734375 3.125q-0.71875 1.296875 -1.921875 2.0q-1.203125 0.6875 -2.609375 0.6875q-0.515625 0 -1.0 -0.046875q-0.484375 -0.03125 -0.921875 -0.171875l0 4.125l1.765625 0.71875l0 0.359375l-6.453125 0zm6.203125 -13.90625q-0.40625 0 -0.765625 0.125q-0.34375 0.109375 -0.75 0.328125l0 6.546875q0.65625 0.75 1.796875 0.75q0.53125 0 1.046875 -0.328125q0.515625 -0.34375 0.84375 -1.203125q0.328125 -0.875 0.328125 -2.453125q0 -1.953125 -0.78125 -2.859375q-0.765625 -0.90625 -1.71875 -0.90625zm7.0944824 8.703125l0 -0.359375l1.515625 -0.734375l0 -13.3125l-1.453125 -1.0625l0 -0.28125l4.375 -1.234375l0.28125 0l0 15.890625l1.328125 0.734375l0 0.359375l-6.046875 0zm10.542175 -12.796875q-0.734375 0 -1.203125 -0.46875q-0.453125 -0.46875 -0.453125 -1.171875q0 -0.71875 0.453125 -1.171875q0.46875 -0.46875 1.203125 -0.46875q0.71875 0 1.171875 0.46875q0.46875 0.453125 0.46875 1.171875q0 0.703125 -0.46875 1.171875q-0.453125 0.46875 -1.171875 0.46875zm-3.0625 12.796875l0 -0.359375l1.515625 -0.734375l0 -6.875l-1.453125 -1.078125l0 -0.265625l4.375 -1.25l0.265625 0l0 9.46875l1.34375 0.734375l0 0.359375l-6.046875 0zm12.544525 0.21875q-1.453125 0 -2.5625 -0.609375q-1.109375 -0.609375 -1.71875 -1.71875q-0.609375 -1.109375 -0.609375 -2.578125q0 -1.71875 0.703125 -3.046875q0.71875 -1.328125 2.0 -2.078125q1.28125 -0.75 2.984375 -0.75q1.0625 0 1.921875 0.296875q0.859375 0.296875 1.296875 0.8125q0.359375 0.4375 0.359375 0.6875q0 0.265625 -0.296875 0.546875l-1.0625 0.90625l-0.15625 0l-0.796875 -1.109375q-0.375 -0.53125 -0.765625 -0.828125q-0.390625 -0.3125 -1.015625 -0.3125q-1.046875 0 -1.578125 1.03125q-0.53125 1.03125 -0.53125 2.75q0 0.984375 0.328125 1.796875q0.34375 0.8125 1.078125 1.296875q0.75 0.46875 1.921875 0.46875q0.640625 0 1.359375 -0.15625q0.71875 -0.15625 1.5 -0.546875l0.0625 0l0 0.359375q-0.5625 1.203125 -1.71875 2.0q-1.140625 0.78125 -2.703125 0.78125zm8.637482 -0.015625q-1.109375 0 -1.90625 -0.65625q-0.796875 -0.671875 -0.75 -1.953125q0 -0.8125 0.3125 -1.390625q0.328125 -0.578125 1.109375 -1.0q0.796875 -0.4375 2.234375 -0.796875l2.125 -0.515625l0 -1.40625q0 -0.859375 -0.53125 -1.375q-0.515625 -0.53125 -1.328125 -0.53125q-0.71875 0 -1.046875 0.3125q-0.3125 0.3125 -0.3125 0.953125l0 1.046875l-0.09375 0.09375l-1.484375 0q-0.34375 0 -0.484375 -0.15625q-0.140625 -0.171875 -0.140625 -0.546875q0 -0.5 0.390625 -0.96875q0.40625 -0.484375 1.0625 -0.890625q0.8125 -0.53125 1.53125 -0.75q0.71875 -0.234375 1.546875 -0.234375q1.125 0 2.046875 0.296875q0.921875 0.296875 1.46875 0.953125q0.5625 0.640625 0.5625 1.65625l0 5.984375q0.375 0.359375 1.09375 0.359375l0.65625 0l0.0625 0.0625l0 0.328125q-0.234375 0.421875 -0.84375 0.78125q-0.59375 0.359375 -1.546875 0.359375q-0.953125 0 -1.5625 -0.390625q-0.59375 -0.390625 -0.90625 -1.140625l-0.140625 0q-0.5625 0.640625 -1.359375 1.078125q-0.796875 0.4375 -1.765625 0.4375zm0.34375 -3.234375q0 0.71875 0.390625 1.078125q0.390625 0.34375 1.09375 0.34375q0.625 0 1.296875 -0.265625l0 -3.328125q-1.125 0.234375 -1.734375 0.53125q-0.59375 0.296875 -0.828125 0.6875q-0.21875 0.375 -0.21875 0.953125zm12.879669 3.25q-1.375 0 -2.265625 -0.578125q-0.875 -0.59375 -0.875 -1.65625l0 -7.296875l-1.640625 0l0 -0.3125l2.09375 -0.703125l2.28125 -2.5l0.4375 0l0 2.5l3.140625 0l0 1.015625l-3.140625 0l0 6.734375q0 0.578125 0.5 0.859375q0.5 0.265625 1.171875 0.265625q0.4375 0 0.765625 -0.046875q0.328125 -0.0625 0.640625 -0.125l0.0625 0.046875l0 0.375q-0.375 0.546875 -1.234375 0.984375q-0.859375 0.4375 -1.9375 0.4375zm7.5578003 -13.015625q-0.734375 0 -1.203125 -0.46875q-0.453125 -0.46875 -0.453125 -1.171875q0 -0.71875 0.453125 -1.171875q0.46875 -0.46875 1.203125 -0.46875q0.71875 0 1.171875 0.46875q0.46875 0.453125 0.46875 1.171875q0 0.703125 -0.46875 1.171875q-0.453125 0.46875 -1.171875 0.46875zm-3.0625 12.796875l0 -0.359375l1.515625 -0.734375l0 -6.875l-1.453125 -1.078125l0 -0.265625l4.375 -1.25l0.265625 0l0 9.46875l1.34375 0.734375l0 0.359375l-6.046875 0zm12.99762 0.21875q-1.609375 0 -2.828125 -0.734375q-1.21875 -0.734375 -1.90625 -1.953125q-0.671875 -1.21875 -0.671875 -2.703125q0 -1.484375 0.671875 -2.703125q0.6875 -1.234375 1.90625 -1.953125q1.21875 -0.734375 2.828125 -0.734375q1.609375 0 2.8125 0.734375q1.21875 0.71875 1.890625 1.953125q0.6875 1.21875 0.6875 2.703125q0 1.484375 -0.6875 2.703125q-0.671875 1.21875 -1.890625 1.953125q-1.203125 0.734375 -2.8125 0.734375zm0.25 -1.109375q0.65625 0 1.078125 -0.53125q0.421875 -0.53125 0.609375 -1.40625q0.203125 -0.890625 0.203125 -1.890625q0 -1.21875 -0.25 -2.296875q-0.234375 -1.09375 -0.75 -1.765625q-0.5 -0.6875 -1.34375 -0.6875q-0.671875 0 -1.109375 0.53125q-0.421875 0.53125 -0.625 1.40625q-0.203125 0.875 -0.203125 1.890625q0 1.25 0.234375 2.328125q0.25 1.0625 0.78125 1.75q0.546875 0.671875 1.375 0.671875zm6.6429443 0.890625l0 -0.359375l1.515625 -0.734375l0 -6.875l-1.453125 -0.9375l0 -0.265625l4.125 -1.390625l0.28125 0l0.203125 1.6875l0.109375 0q0.8125 -0.796875 1.578125 -1.234375q0.78125 -0.453125 1.8125 -0.453125q1.390625 0 2.25 0.703125q0.875 0.703125 0.875 2.09375l0 6.671875l1.53125 0.734375l0 0.359375l-5.84375 0l0 -0.359375l1.125 -0.734375l0 -5.75q0 -0.796875 -0.46875 -1.203125q-0.453125 -0.421875 -1.15625 -0.421875q-0.4375 0 -0.953125 0.15625q-0.5 0.15625 -0.84375 0.453125l0 6.765625l1.15625 0.734375l0 0.359375l-5.84375 0z" fill-rule="nonzero"/><path fill="#ffffff" d="m28.829737 174.05373l30.229994 -0.040039062l17.329063 -18.227676l-17.329063 -18.181763l-30.229994 0.040039062l17.329062 18.181763z" fill-rule="evenodd"/><path stroke="#000000" stroke-width="1.0" stroke-linejoin="round" stroke-linecap="butt" d="m28.829737 174.05373l30.229994 -0.040039062l17.329063 -18.227676l-17.329063 -18.181763l-30.229994 0.040039062l17.329062 18.181763z" fill-rule="evenodd"/><path fill="#000000" fill-opacity="0.0" d="m90.71916 136.43045l385.00787 0l0 46.866135l-385.00787 0z" fill-rule="evenodd"/><path fill="#ffffff" d="m100.71916 167.19044l0 -0.359375l1.921875 -0.9375l0 -12.359375l-1.921875 -0.9375l0 -0.359375l12.34375 0l0 3.921875l-0.359375 0l-1.671875 -2.671875l-4.96875 0l0 5.359375l3.484375 0l1.265625 -1.9375l0.375 0l0 5.09375l-0.375 0l-1.265625 -1.90625l-3.484375 0l0 5.84375l5.5 0l1.765625 -3.375l0.375 0l0 4.625l-12.984375 0zm14.835129 0l0 -0.359375l1.171875 -0.703125l3.140625 -3.671875l-3.296875 -4.625l-1.015625 -0.609375l0 -0.359375l6.15625 0l0 0.359375l-1.265625 0.59375l0 0.125l1.71875 2.4375l1.78125 -2.296875l0 -0.140625l-1.15625 -0.71875l0 -0.359375l4.046875 0l0 0.359375l-1.203125 0.703125l-2.828125 3.359375l3.484375 4.9375l0.9375 0.609375l0 0.359375l-6.03125 0l0 -0.359375l1.25 -0.59375l0 -0.140625l-1.96875 -2.75l-1.96875 2.625l0 0.125l1.234375 0.734375l0 0.359375l-4.1875 0zm17.695953 0.21875q-2.328125 0 -3.6875 -1.34375q-1.34375 -1.34375 -1.34375 -3.5625q0 -1.71875 0.75 -3.046875q0.75 -1.328125 2.015625 -2.078125q1.265625 -0.75 2.828125 -0.75q1.84375 0 2.859375 1.234375q1.015625 1.21875 1.046875 3.453125l-0.09375 0.125l-6.34375 0l0 0.109375q0 0.953125 0.359375 1.734375q0.359375 0.78125 1.140625 1.234375q0.78125 0.453125 2.03125 0.453125q0.65625 0 1.359375 -0.15625q0.71875 -0.15625 1.5 -0.546875l0.0625 0l0 0.359375q-0.5625 1.203125 -1.734375 2.0q-1.171875 0.78125 -2.75 0.78125zm0.046875 -9.75q-0.796875 0 -1.3125 0.71875q-0.5 0.71875 -0.640625 2.03125l3.828125 0q-0.15625 -1.5625 -0.640625 -2.15625q-0.484375 -0.59375 -1.234375 -0.59375zm6.0499725 9.53125l0 -0.359375l1.5 -0.734375l0 -6.75l-1.4375 -1.0625l0 -0.265625l4.125 -1.390625l0.265625 0l0.21875 2.046875l0.109375 0q0.546875 -0.859375 0.96875 -1.296875q0.4375 -0.453125 0.8125 -0.59375q0.390625 -0.15625 0.84375 -0.15625q0.1875 0 0.421875 0.0625q0.234375 0.0625 0.421875 0.125q0.671875 0.203125 0.671875 0.640625q0 0.203125 -0.09375 0.375l-0.53125 1.46875l-0.171875 0l-0.578125 -0.203125q-0.59375 -0.203125 -1.203125 -0.203125q-0.953125 0 -1.65625 0.890625l0 6.3125l1.828125 0.734375l0 0.359375l-6.515625 0zm14.628891 0.21875q-1.453125 0 -2.5625 -0.609375q-1.109375 -0.609375 -1.71875 -1.71875q-0.609375 -1.109375 -0.609375 -2.578125q0 -1.71875 0.703125 -3.046875q0.71875 -1.328125 2.0 -2.078125q1.28125 -0.75 2.984375 -0.75q1.0625 0 1.921875 0.296875q0.859375 0.296875 1.296875 0.8125q0.359375 0.4375 0.359375 0.6875q0 0.265625 -0.296875 0.546875l-1.0625 0.90625l-0.15625 0l-0.796875 -1.109375q-0.375 -0.53125 -0.765625 -0.828125q-0.390625 -0.3125 -1.015625 -0.3125q-1.046875 0 -1.578125 1.03125q-0.53125 1.03125 -0.53125 2.75q0 0.984375 0.328125 1.796875q0.34375 0.8125 1.078125 1.296875q0.75 0.46875 1.921875 0.46875q0.640625 0 1.359375 -0.15625q0.71875 -0.15625 1.5 -0.546875l0.0625 0l0 0.359375q-0.5625 1.203125 -1.71875 2.0q-1.140625 0.78125 -2.703125 0.78125zm9.028107 -13.015625q-0.734375 0 -1.203125 -0.46875q-0.453125 -0.46875 -0.453125 -1.171875q0 -0.71875 0.453125 -1.171875q0.46875 -0.46875 1.203125 -0.46875q0.71875 0 1.171875 0.46875q0.46875 0.453125 0.46875 1.171875q0 0.703125 -0.46875 1.171875q-0.453125 0.46875 -1.171875 0.46875zm-3.0625 12.796875l0 -0.359375l1.515625 -0.734375l0 -6.875l-1.453125 -1.078125l0 -0.265625l4.375 -1.25l0.265625 0l0 9.46875l1.34375 0.734375l0 0.359375l-6.046875 0zm12.54451 0.21875q-1.453125 0 -2.5625 -0.609375q-1.109375 -0.609375 -1.71875 -1.71875q-0.609375 -1.109375 -0.609375 -2.578125q0 -1.71875 0.703125 -3.046875q0.71875 -1.328125 2.0 -2.078125q1.28125 -0.75 2.984375 -0.75q1.0625 0 1.921875 0.296875q0.859375 0.296875 1.296875 0.8125q0.359375 0.4375 0.359375 0.6875q0 0.265625 -0.296875 0.546875l-1.0625 0.90625l-0.15625 0l-0.796875 -1.109375q-0.375 -0.53125 -0.765625 -0.828125q-0.390625 -0.3125 -1.015625 -0.3125q-1.046875 0 -1.578125 1.03125q-0.53125 1.03125 -0.53125 2.75q0 0.984375 0.328125 1.796875q0.34375 0.8125 1.078125 1.296875q0.75 0.46875 1.921875 0.46875q0.640625 0 1.359375 -0.15625q0.71875 -0.15625 1.5 -0.546875l0.0625 0l0 0.359375q-0.5625 1.203125 -1.71875 2.0q-1.140625 0.78125 -2.703125 0.78125zm10.97023 0q-2.328125 0 -3.6875 -1.34375q-1.34375 -1.34375 -1.34375 -3.5625q0 -1.71875 0.75 -3.046875q0.75 -1.328125 2.015625 -2.078125q1.265625 -0.75 2.828125 -0.75q1.84375 0 2.859375 1.234375q1.015625 1.21875 1.046875 3.453125l-0.09375 0.125l-6.34375 0l0 0.109375q0 0.953125 0.359375 1.734375q0.359375 0.78125 1.140625 1.234375q0.78125 0.453125 2.03125 0.453125q0.65625 0 1.359375 -0.15625q0.71875 -0.15625 1.5 -0.546875l0.0625 0l0 0.359375q-0.5625 1.203125 -1.734375 2.0q-1.171875 0.78125 -2.75 0.78125zm0.046875 -9.75q-0.796875 0 -1.3125 0.71875q-0.5 0.71875 -0.640625 2.03125l3.828125 0q-0.15625 -1.5625 -0.640625 -2.15625q-0.484375 -0.59375 -1.234375 -0.59375zm10.034348 9.75q-1.109375 0 -1.9375 -0.21875q-0.828125 -0.203125 -1.625 -0.59375l0 -2.625l0.34375 0l0.796875 1.1875q0.84375 1.265625 2.328125 1.265625q1.765625 0 1.765625 -1.296875q0 -0.46875 -0.25 -0.765625q-0.25 -0.296875 -0.8125 -0.5625q-0.546875 -0.28125 -1.515625 -0.6875q-1.265625 -0.515625 -1.875 -1.21875q-0.609375 -0.703125 -0.609375 -1.75q0 -0.96875 0.5 -1.765625q0.515625 -0.796875 1.390625 -1.265625q0.890625 -0.484375 2.0 -0.484375q0.765625 0 1.5 0.171875q0.734375 0.15625 1.4375 0.515625l0 2.6875l-0.328125 0l-0.703125 -1.0625q-0.4375 -0.65625 -0.890625 -0.96875q-0.453125 -0.3125 -1.078125 -0.3125q-0.6875 0 -1.109375 0.34375q-0.421875 0.328125 -0.421875 0.9375q0 0.40625 0.1875 0.703125q0.203125 0.28125 0.703125 0.546875q0.5 0.265625 1.421875 0.640625q0.640625 0.25 1.265625 0.578125q0.625 0.328125 1.03125 0.921875q0.421875 0.59375 0.421875 1.671875q0 1.0625 -0.5625 1.828125q-0.5625 0.765625 -1.46875 1.171875q-0.890625 0.40625 -1.90625 0.40625zm15.361679 0q-1.0 0 -1.875 -0.5625q-0.859375 -0.5625 -1.40625 -1.59375q-0.53125 -1.046875 -0.53125 -2.484375q0 -1.875 0.671875 -3.25q0.6875 -1.390625 1.890625 -2.140625q1.203125 -0.75 2.765625 -0.75q1.09375 0 1.875 0.203125l0 -4.046875l-1.5625 -1.09375l0 -0.25l4.46875 -1.234375l0.265625 0l0 15.96875l1.59375 0.65625l0 0.359375l-4.53125 0l-0.1875 -1.125l-0.15625 0q-0.828125 0.71875 -1.609375 1.03125q-0.765625 0.3125 -1.671875 0.3125zm-0.609375 -5.34375q0 1.8125 0.765625 2.65625q0.765625 0.84375 1.71875 0.84375q0.40625 0 0.75 -0.109375q0.359375 -0.125 0.765625 -0.34375l0 -6.578125q-0.28125 -0.34375 -0.671875 -0.515625q-0.390625 -0.1875 -0.859375 -0.1875q-0.65625 0 -1.234375 0.375q-0.5625 0.359375 -0.90625 1.28125q-0.328125 0.90625 -0.328125 2.578125zm15.177322 5.34375q-2.328125 0 -3.6875 -1.34375q-1.34375 -1.34375 -1.34375 -3.5625q0 -1.71875 0.75 -3.046875q0.75 -1.328125 2.015625 -2.078125q1.265625 -0.75 2.828125 -0.75q1.84375 0 2.859375 1.234375q1.015625 1.21875 1.046875 3.453125l-0.09375 0.125l-6.34375 0l0 0.109375q0 0.953125 0.359375 1.734375q0.359375 0.78125 1.140625 1.234375q0.78125 0.453125 2.03125 0.453125q0.65625 0 1.359375 -0.15625q0.71875 -0.15625 1.5 -0.546875l0.0625 0l0 0.359375q-0.5625 1.203125 -1.734375 2.0q-1.171875 0.78125 -2.75 0.78125zm0.046875 -9.75q-0.796875 0 -1.3125 0.71875q-0.5 0.71875 -0.640625 2.03125l3.828125 0q-0.15625 -1.5625 -0.640625 -2.15625q-0.484375 -0.59375 -1.234375 -0.59375zm15.698395 9.75q-1.109375 0 -1.9375 -0.21875q-0.828125 -0.203125 -1.625 -0.59375l0 -2.625l0.34375 0l0.796875 1.1875q0.84375 1.265625 2.328125 1.265625q1.765625 0 1.765625 -1.296875q0 -0.46875 -0.25 -0.765625q-0.25 -0.296875 -0.8125 -0.5625q-0.546875 -0.28125 -1.515625 -0.6875q-1.265625 -0.515625 -1.875 -1.21875q-0.609375 -0.703125 -0.609375 -1.75q0 -0.96875 0.5 -1.765625q0.515625 -0.796875 1.390625 -1.265625q0.890625 -0.484375 2.0 -0.484375q0.765625 0 1.5 0.171875q0.734375 0.15625 1.4375 0.515625l0 2.6875l-0.328125 0l-0.703125 -1.0625q-0.4375 -0.65625 -0.890625 -0.96875q-0.453125 -0.3125 -1.078125 -0.3125q-0.6875 0 -1.109375 0.34375q-0.421875 0.328125 -0.421875 0.9375q0 0.40625 0.1875 0.703125q0.203125 0.28125 0.703125 0.546875q0.5 0.265625 1.421875 0.640625q0.640625 0.25 1.265625 0.578125q0.625 0.328125 1.03125 0.921875q0.421875 0.59375 0.421875 1.671875q0 1.0625 -0.5625 1.828125q-0.5625 0.765625 -1.46875 1.171875q-0.890625 0.40625 -1.90625 0.40625zm10.103882 0q-1.359375 0 -2.234375 -0.6875q-0.875 -0.703125 -0.875 -2.09375l0 -6.6875l-1.484375 -0.71875l0 -0.359375l4.6875 0l0 6.84375q0 0.78125 0.453125 1.203125q0.453125 0.421875 1.15625 0.421875q0.421875 0 0.890625 -0.15625q0.484375 -0.15625 0.828125 -0.4375l0 -6.796875l-1.359375 -0.71875l0 -0.359375l4.546875 0l0 9.265625l1.4374847 0.703125l0 0.359375l-4.6249847 0l0 -1.453125l-0.09375 0q-0.796875 0.796875 -1.546875 1.234375q-0.734375 0.4375 -1.78125 0.4375zm12.195267 -13.015625q-0.734375 0 -1.203125 -0.46875q-0.453125 -0.46875 -0.453125 -1.171875q0 -0.71875 0.453125 -1.171875q0.46875 -0.46875 1.203125 -0.46875q0.71875 0 1.1875 0.46875q0.46875 0.453125 0.46875 1.171875q0 0.703125 -0.46875 1.171875q-0.46875 0.46875 -1.1875 0.46875zm-2.96875 18.0l0 -0.40625q0.609375 -0.5 0.90625 -0.96875q0.3125 -0.453125 0.40625 -1.0625q0.109375 -0.59375 0.109375 -1.5l0 -9.234375l-1.421875 -1.078125l0 -0.265625l4.34375 -1.25l0.28125 0l0 10.015625q0 1.359375 -0.40625 2.359375q-0.390625 1.0 -1.390625 1.78125q-1.0 0.796875 -2.828125 1.609375zm12.5703125 -4.984375q-2.328125 0 -3.6875 -1.34375q-1.34375 -1.34375 -1.34375 -3.5625q0 -1.71875 0.75 -3.046875q0.75 -1.328125 2.015625 -2.078125q1.265625 -0.75 2.828125 -0.75q1.84375 0 2.859375 1.234375q1.015625 1.21875 1.046875 3.453125l-0.09375 0.125l-6.34375 0l0 0.109375q0 0.953125 0.359375 1.734375q0.359375 0.78125 1.140625 1.234375q0.78125 0.453125 2.03125 0.453125q0.65625 0 1.359375 -0.15625q0.71875 -0.15625 1.5 -0.546875l0.0625 0l0 0.359375q-0.5625 1.203125 -1.734375 2.0q-1.171875 0.78125 -2.75 0.78125zm0.046875 -9.75q-0.796875 0 -1.3125 0.71875q-0.5 0.71875 -0.640625 2.03125l3.828125 0q-0.15625 -1.5625 -0.640625 -2.15625q-0.484375 -0.59375 -1.234375 -0.59375zm10.299957 9.75q-1.375 0 -2.265625 -0.578125q-0.875 -0.59375 -0.875 -1.65625l0 -7.296875l-1.640625 0l0 -0.3125l2.09375 -0.703125l2.28125 -2.5l0.4375 0l0 2.5l3.140625 0l0 1.015625l-3.140625 0l0 6.734375q0 0.578125 0.5 0.859375q0.5 0.265625 1.171875 0.265625q0.4375 0 0.765625 -0.046875q0.328125 -0.0625 0.640625 -0.125l0.0625 0.046875l0 0.375q-0.375 0.546875 -1.234375 0.984375q-0.859375 0.4375 -1.9375 0.4375zm8.479675 0q-1.109375 0 -1.9375 -0.21875q-0.828125 -0.203125 -1.625 -0.59375l0 -2.625l0.34375 0l0.796875 1.1875q0.84375 1.265625 2.328125 1.265625q1.765625 0 1.765625 -1.296875q0 -0.46875 -0.25 -0.765625q-0.25 -0.296875 -0.8125 -0.5625q-0.546875 -0.28125 -1.515625 -0.6875q-1.265625 -0.515625 -1.875 -1.21875q-0.609375 -0.703125 -0.609375 -1.75q0 -0.96875 0.5 -1.765625q0.515625 -0.796875 1.390625 -1.265625q0.890625 -0.484375 2.0 -0.484375q0.765625 0 1.5 0.171875q0.734375 0.15625 1.4375 0.515625l0 2.6875l-0.328125 0l-0.703125 -1.0625q-0.4375 -0.65625 -0.890625 -0.96875q-0.453125 -0.3125 -1.078125 -0.3125q-0.6875 0 -1.109375 0.34375q-0.421875 0.328125 -0.421875 0.9375q0 0.40625 0.1875 0.703125q0.203125 0.28125 0.703125 0.546875q0.5 0.265625 1.421875 0.640625q0.640625 0.25 1.265625 0.578125q0.625 0.328125 1.03125 0.921875q0.421875 0.59375 0.421875 1.671875q0 1.0625 -0.5625 1.828125q-0.5625 0.765625 -1.46875 1.171875q-0.890625 0.40625 -1.90625 0.40625zm11.533569 4.984375l0 -0.359375l1.515625 -0.71875l0 -11.96875l-1.453125 -1.0625l0 -0.265625l4.125 -1.390625l0.28125 0l0.171875 1.390625l0.140625 0q0.84375 -0.734375 1.625 -1.0625q0.78125 -0.328125 1.6875 -0.328125q0.984375 0 1.859375 0.609375q0.875 0.59375 1.390625 1.703125q0.53125 1.109375 0.53125 2.65625q0 1.8125 -0.734375 3.125q-0.71875 1.296875 -1.921875 2.0q-1.203125 0.6875 -2.609375 0.6875q-0.515625 0 -1.0 -0.046875q-0.484375 -0.03125 -0.921875 -0.171875l0 4.125l1.765625 0.71875l0 0.359375l-6.453125 0zm6.203125 -13.90625q-0.40625 0 -0.765625 0.125q-0.34375 0.109375 -0.75 0.328125l0 6.546875q0.65625 0.75 1.796875 0.75q0.53125 0 1.046875 -0.328125q0.515625 -0.34375 0.84375 -1.203125q0.328125 -0.875 0.328125 -2.453125q0 -1.953125 -0.78125 -2.859375q-0.765625 -0.90625 -1.71875 -0.90625zm7.1882324 8.703125l0 -0.359375l1.5 -0.734375l0 -6.75l-1.4375 -1.0625l0 -0.265625l4.125 -1.390625l0.265625 0l0.21875 2.046875l0.109375 0q0.546875 -0.859375 0.96875 -1.296875q0.4375 -0.453125 0.8125 -0.59375q0.390625 -0.15625 0.84375 -0.15625q0.1875 0 0.421875 0.0625q0.234375 0.0625 0.421875 0.125q0.671875 0.203125 0.671875 0.640625q0 0.203125 -0.09375 0.375l-0.53125 1.46875l-0.171875 0l-0.578125 -0.203125q-0.59375 -0.203125 -1.203125 -0.203125q-0.953125 0 -1.65625 0.890625l0 6.3125l1.828125 0.734375l0 0.359375l-6.515625 0zm14.769531 0.21875q-2.328125 0 -3.6875 -1.34375q-1.34375 -1.34375 -1.34375 -3.5625q0 -1.71875 0.75 -3.046875q0.75 -1.328125 2.015625 -2.078125q1.265625 -0.75 2.828125 -0.75q1.84375 0 2.859375 1.234375q1.015625 1.21875 1.046875 3.453125l-0.09375 0.125l-6.34375 0l0 0.109375q0 0.953125 0.359375 1.734375q0.359375 0.78125 1.140625 1.234375q0.78125 0.453125 2.03125 0.453125q0.65625 0 1.359375 -0.15625q0.71875 -0.15625 1.5 -0.546875l0.0625 0l0 0.359375q-0.5625 1.203125 -1.734375 2.0q-1.171875 0.78125 -2.75 0.78125zm0.046875 -9.75q-0.796875 0 -1.3125 0.71875q-0.5 0.71875 -0.640625 2.03125l3.828125 0q-0.15625 -1.5625 -0.640625 -2.15625q-0.484375 -0.59375 -1.234375 -0.59375zm-0.125 -2.46875l1.890625 -4.015625l2.484375 0q0 0.421875 -0.203125 0.78125q-0.203125 0.34375 -0.703125 0.78125l-2.96875 2.453125l-0.5 0zm11.44696 12.21875q-1.453125 0 -2.5625 -0.609375q-1.109375 -0.609375 -1.71875 -1.71875q-0.609375 -1.109375 -0.609375 -2.578125q0 -1.71875 0.703125 -3.046875q0.71875 -1.328125 2.0 -2.078125q1.28125 -0.75 2.984375 -0.75q1.0625 0 1.921875 0.296875q0.859375 0.296875 1.296875 0.8125q0.359375 0.4375 0.359375 0.6875q0 0.265625 -0.296875 0.546875l-1.0625 0.90625l-0.15625 0l-0.796875 -1.109375q-0.375 -0.53125 -0.765625 -0.828125q-0.390625 -0.3125 -1.015625 -0.3125q-1.046875 0 -1.578125 1.03125q-0.53125 1.03125 -0.53125 2.75q0 0.984375 0.328125 1.796875q0.34375 0.8125 1.078125 1.296875q0.75 0.46875 1.921875 0.46875q0.640625 0 1.359375 -0.15625q0.71875 -0.15625 1.5 -0.546875l0.0625 0l0 0.359375q-0.5625 1.203125 -1.71875 2.0q-1.140625 0.78125 -2.703125 0.78125zm10.970215 0q-2.328125 0 -3.6875 -1.34375q-1.34375 -1.34375 -1.34375 -3.5625q0 -1.71875 0.75 -3.046875q0.75 -1.328125 2.015625 -2.078125q1.265625 -0.75 2.828125 -0.75q1.84375 0 2.859375 1.234375q1.015625 1.21875 1.046875 3.453125l-0.09375 0.125l-6.34375 0l0 0.109375q0 0.953125 0.359375 1.734375q0.359375 0.78125 1.140625 1.234375q0.78125 0.453125 2.03125 0.453125q0.65625 0 1.359375 -0.15625q0.71875 -0.15625 1.5 -0.546875l0.0625 0l0 0.359375q-0.5625 1.203125 -1.734375 2.0q-1.171875 0.78125 -2.75 0.78125zm0.046875 -9.75q-0.796875 0 -1.3125 0.71875q-0.5 0.71875 -0.640625 2.03125l3.828125 0q-0.15625 -1.5625 -0.640625 -2.15625q-0.484375 -0.59375 -1.234375 -0.59375zm-0.125 -2.46875l1.890625 -4.015625l2.484375 0q0 0.421875 -0.203125 0.78125q-0.203125 0.34375 -0.703125 0.78125l-2.96875 2.453125l-0.5 0zm10.228241 12.21875q-1.0 0 -1.875 -0.5625q-0.859375 -0.5625 -1.40625 -1.59375q-0.53125 -1.046875 -0.53125 -2.484375q0 -1.875 0.671875 -3.25q0.6875 -1.390625 1.890625 -2.140625q1.203125 -0.75 2.765625 -0.75q1.09375 0 1.875 0.203125l0 -4.046875l-1.5625 -1.09375l0 -0.25l4.46875 -1.234375l0.265625 0l0 15.96875l1.59375 0.65625l0 0.359375l-4.53125 0l-0.1875 -1.125l-0.15625 0q-0.828125 0.71875 -1.609375 1.03125q-0.765625 0.3125 -1.671875 0.3125zm-0.609375 -5.34375q0 1.8125 0.765625 2.65625q0.765625 0.84375 1.71875 0.84375q0.40625 0 0.75 -0.109375q0.359375 -0.125 0.765625 -0.34375l0 -6.578125q-0.28125 -0.34375 -0.671875 -0.515625q-0.390625 -0.1875 -0.859375 -0.1875q-0.65625 0 -1.234375 0.375q-0.5625 0.359375 -0.90625 1.28125q-0.328125 0.90625 -0.328125 2.578125zm15.177338 5.34375q-2.328125 0 -3.6875 -1.34375q-1.34375 -1.34375 -1.34375 -3.5625q0 -1.71875 0.75 -3.046875q0.75 -1.328125 2.015625 -2.078125q1.265625 -0.75 2.828125 -0.75q1.84375 0 2.859375 1.234375q1.015625 1.21875 1.046875 3.453125l-0.09375 0.125l-6.34375 0l0 0.109375q0 0.953125 0.359375 1.734375q0.359375 0.78125 1.140625 1.234375q0.78125 0.453125 2.03125 0.453125q0.65625 0 1.359375 -0.15625q0.71875 -0.15625 1.5 -0.546875l0.0625 0l0 0.359375q-0.5625 1.203125 -1.734375 2.0q-1.171875 0.78125 -2.75 0.78125zm0.046875 -9.75q-0.796875 0 -1.3125 0.71875q-0.5 0.71875 -0.640625 2.03125l3.828125 0q-0.15625 -1.5625 -0.640625 -2.15625q-0.484375 -0.59375 -1.234375 -0.59375zm6.003113 9.53125l0 -0.359375l1.515625 -0.734375l0 -6.875l-1.453125 -0.9375l0 -0.265625l4.125 -1.390625l0.28125 0l0.203125 1.6875l0.109375 0q0.8125 -0.796875 1.578125 -1.234375q0.78125 -0.453125 1.8125 -0.453125q1.390625 0 2.25 0.703125q0.875 0.703125 0.875 2.09375l0 6.671875l1.53125 0.734375l0 0.359375l-5.84375 0l0 -0.359375l1.125 -0.734375l0 -5.75q0 -0.796875 -0.46875 -1.203125q-0.453125 -0.421875 -1.15625 -0.421875q-0.4375 0 -0.953125 0.15625q-0.5 0.15625 -0.84375 0.453125l0 6.765625l1.15625 0.734375l0 0.359375l-5.84375 0zm18.2984 0.21875q-1.375 0 -2.265625 -0.578125q-0.875 -0.59375 -0.875 -1.65625l0 -7.296875l-1.640625 0l0 -0.3125l2.09375 -0.703125l2.28125 -2.5l0.4375 0l0 2.5l3.140625 0l0 1.015625l-3.140625 0l0 6.734375q0 0.578125 0.5 0.859375q0.5 0.265625 1.171875 0.265625q0.4375 0 0.765625 -0.046875q0.328125 -0.0625 0.640625 -0.125l0.0625 0.046875l0 0.375q-0.375 0.546875 -1.234375 0.984375q-0.859375 0.4375 -1.9375 0.4375zm8.479675 0q-1.109375 0 -1.9375 -0.21875q-0.828125 -0.203125 -1.625 -0.59375l0 -2.625l0.34375 0l0.796875 1.1875q0.84375 1.265625 2.328125 1.265625q1.765625 0 1.765625 -1.296875q0 -0.46875 -0.25 -0.765625q-0.25 -0.296875 -0.8125 -0.5625q-0.546875 -0.28125 -1.515625 -0.6875q-1.265625 -0.515625 -1.875 -1.21875q-0.609375 -0.703125 -0.609375 -1.75q0 -0.96875 0.5 -1.765625q0.515625 -0.796875 1.390625 -1.265625q0.890625 -0.484375 2.0 -0.484375q0.765625 0 1.5 0.171875q0.734375 0.15625 1.4375 0.515625l0 2.6875l-0.328125 0l-0.703125 -1.0625q-0.4375 -0.65625 -0.890625 -0.96875q-0.453125 -0.3125 -1.078125 -0.3125q-0.6875 0 -1.109375 0.34375q-0.421875 0.328125 -0.421875 0.9375q0 0.40625 0.1875 0.703125q0.203125 0.28125 0.703125 0.546875q0.5 0.265625 1.421875 0.640625q0.640625 0.25 1.265625 0.578125q0.625 0.328125 1.03125 0.921875q0.421875 0.59375 0.421875 1.671875q0 1.0625 -0.5625 1.828125q-0.5625 0.765625 -1.46875 1.171875q-0.890625 0.40625 -1.90625 0.40625z" fill-rule="nonzero"/><path fill="#4a86e8" d="m274.59317 184.46194l397.98428 0l0 32.629913l-397.98428 0z" fill-rule="evenodd"/><path stroke="#000000" stroke-width="1.0" stroke-linejoin="round" stroke-linecap="butt" d="m274.59317 184.46194l397.98428 0l0 32.629913l-397.98428 0z" fill-rule="evenodd"/><path fill="#000000" d="m285.03067 207.6969l0 -13.359375l5.046875 0q1.328125 0 2.03125 0.125q0.96875 0.171875 1.640625 0.640625q0.671875 0.453125 1.078125 1.28125q0.40625 0.828125 0.40625 1.828125q0 1.703125 -1.09375 2.890625q-1.078125 1.171875 -3.921875 1.171875l-3.421875 0l0 5.421875l-1.765625 0zm1.765625 -7.0l3.453125 0q1.71875 0 2.4375 -0.640625q0.71875 -0.640625 0.71875 -1.796875q0 -0.84375 -0.421875 -1.4375q-0.421875 -0.59375 -1.125 -0.78125q-0.4375 -0.125 -1.640625 -0.125l-3.421875 0l0 4.78125zm20.209198 2.3125l1.765625 0.453125q-0.5625 2.171875 -2.0 3.328125q-1.4375 1.140625 -3.53125 1.140625q-2.15625 0 -3.515625 -0.875q-1.34375 -0.890625 -2.0625 -2.546875q-0.703125 -1.671875 -0.703125 -3.59375q0 -2.078125 0.796875 -3.625q0.796875 -1.5625 2.265625 -2.359375q1.484375 -0.8125 3.25 -0.8125q2.0 0 3.359375 1.015625q1.375 1.015625 1.90625 2.875l-1.734375 0.40625q-0.46875 -1.453125 -1.359375 -2.109375q-0.875 -0.671875 -2.203125 -0.671875q-1.546875 0 -2.578125 0.734375q-1.03125 0.734375 -1.453125 1.984375q-0.421875 1.234375 -0.421875 2.5625q0 1.703125 0.5 2.96875q0.5 1.265625 1.546875 1.90625q1.046875 0.625 2.265625 0.625q1.484375 0 2.515625 -0.859375q1.03125 -0.859375 1.390625 -2.546875zm3.8635864 4.6875l0 -13.359375l5.015625 0q1.53125 0 2.453125 0.40625q0.921875 0.40625 1.4375 1.25q0.53125 0.84375 0.53125 1.765625q0 0.859375 -0.46875 1.625q-0.453125 0.75 -1.390625 1.203125q1.203125 0.359375 1.859375 1.21875q0.65625 0.859375 0.65625 2.015625q0 0.9375 -0.40625 1.75q-0.390625 0.796875 -0.984375 1.234375q-0.578125 0.4375 -1.453125 0.671875q-0.875 0.21875 -2.15625 0.21875l-5.09375 0zm1.78125 -7.75l2.875 0q1.1875 0 1.6875 -0.140625q0.671875 -0.203125 1.015625 -0.671875q0.34375 -0.46875 0.34375 -1.171875q0 -0.65625 -0.328125 -1.15625q-0.3125 -0.515625 -0.90625 -0.703125q-0.59375 -0.1875 -2.03125 -0.1875l-2.65625 0l0 4.03125zm0 6.171875l3.3125 0q0.859375 0 1.203125 -0.0625q0.609375 -0.109375 1.015625 -0.359375q0.421875 -0.265625 0.6875 -0.75q0.265625 -0.484375 0.265625 -1.125q0 -0.75 -0.390625 -1.296875q-0.375 -0.546875 -1.0625 -0.765625q-0.671875 -0.234375 -1.953125 -0.234375l-3.078125 0l0 4.59375zm9.271698 1.578125l5.125 -13.359375l1.90625 0l5.46875 13.359375l-2.015625 0l-1.546875 -4.046875l-5.59375 0l-1.46875 4.046875l-1.875 0zm3.859375 -5.484375l4.53125 0l-1.40625 -3.703125q-0.625 -1.6875 -0.9375 -2.765625q-0.265625 1.28125 -0.71875 2.546875l-1.46875 3.921875zm19.584198 0.796875l1.765625 0.453125q-0.5625 2.171875 -2.0 3.328125q-1.4375 1.140625 -3.53125 1.140625q-2.15625 0 -3.515625 -0.875q-1.34375 -0.890625 -2.0625 -2.546875q-0.703125 -1.671875 -0.703125 -3.59375q0 -2.078125 0.796875 -3.625q0.796875 -1.5625 2.265625 -2.359375q1.484375 -0.8125 3.25 -0.8125q2.0 0 3.359375 1.015625q1.375 1.015625 1.90625 2.875l-1.734375 0.40625q-0.46875 -1.453125 -1.359375 -2.109375q-0.875 -0.671875 -2.203125 -0.671875q-1.546875 0 -2.578125 0.734375q-1.03125 0.734375 -1.453125 1.984375q-0.421875 1.234375 -0.421875 2.5625q0 1.703125 0.5 2.96875q0.5 1.265625 1.546875 1.90625q1.046875 0.625 2.265625 0.625q1.484375 0 2.515625 -0.859375q1.03125 -0.859375 1.390625 -2.546875zm13.472931 0l1.765625 0.453125q-0.5625 2.171875 -2.0 3.328125q-1.4375 1.140625 -3.53125 1.140625q-2.15625 0 -3.515625 -0.875q-1.34375 -0.890625 -2.0625 -2.546875q-0.703125 -1.671875 -0.703125 -3.59375q0 -2.078125 0.796875 -3.625q0.796875 -1.5625 2.265625 -2.359375q1.484375 -0.8125 3.25 -0.8125q2.0 0 3.359375 1.015625q1.375 1.015625 1.90625 2.875l-1.734375 0.40625q-0.46875 -1.453125 -1.359375 -2.109375q-0.875 -0.671875 -2.203125 -0.671875q-1.546875 0 -2.578125 0.734375q-1.03125 0.734375 -1.453125 1.984375q-0.421875 1.234375 -0.421875 2.5625q0 1.703125 0.5 2.96875q0.5 1.265625 1.546875 1.90625q1.046875 0.625 2.265625 0.625q1.484375 0 2.515625 -0.859375q1.03125 -0.859375 1.390625 -2.546875zm4.1917114 -3.125l0 -1.859375l1.859375 0l0 1.859375l-1.859375 0zm0 7.8125l0 -1.875l1.859375 0l0 1.875l-1.859375 0zm10.116608 0l0 -13.359375l5.046875 0q1.328125 0 2.03125 0.125q0.96875 0.171875 1.640625 0.640625q0.671875 0.453125 1.078125 1.28125q0.40625 0.828125 0.40625 1.828125q0 1.703125 -1.09375 2.890625q-1.078125 1.171875 -3.921875 1.171875l-3.421875 0l0 5.421875l-1.765625 0zm1.765625 -7.0l3.453125 0q1.71875 0 2.4375 -0.640625q0.71875 -0.640625 0.71875 -1.796875q0 -0.84375 -0.421875 -1.4375q-0.421875 -0.59375 -1.125 -0.78125q-0.4375 -0.125 -1.640625 -0.125l-3.421875 0l0 4.78125zm10.740448 7.0l0 -13.359375l1.765625 0l0 5.484375l6.9375 0l0 -5.484375l1.765625 0l0 13.359375l-1.765625 0l0 -6.296875l-6.9375 0l0 6.296875l-1.765625 0zm17.176056 0l0 -5.65625l-5.15625 -7.703125l2.15625 0l2.640625 4.03125q0.71875 1.125 1.34375 2.265625q0.609375 -1.046875 1.46875 -2.359375l2.578125 -3.9375l2.0625 0l-5.328125 7.703125l0 5.65625l-1.765625 0zm8.084198 -4.296875l1.65625 -0.140625q0.125 1.0 0.546875 1.640625q0.4375 0.640625 1.34375 1.046875q0.921875 0.390625 2.0625 0.390625q1.0 0 1.78125 -0.296875q0.78125 -0.296875 1.15625 -0.8125q0.375 -0.53125 0.375 -1.15625q0 -0.625 -0.375 -1.09375q-0.359375 -0.46875 -1.1875 -0.796875q-0.546875 -0.203125 -2.390625 -0.640625q-1.828125 -0.453125 -2.5625 -0.84375q-0.96875 -0.5 -1.4375 -1.234375q-0.46875 -0.75 -0.46875 -1.671875q0 -1.0 0.578125 -1.875q0.578125 -0.890625 1.671875 -1.34375q1.109375 -0.453125 2.453125 -0.453125q1.484375 0 2.609375 0.484375q1.140625 0.46875 1.75 1.40625q0.609375 0.921875 0.65625 2.09375l-1.6875 0.125q-0.140625 -1.265625 -0.9375 -1.90625q-0.78125 -0.65625 -2.3125 -0.65625q-1.609375 0 -2.34375 0.59375q-0.734375 0.59375 -0.734375 1.421875q0 0.71875 0.53125 1.171875q0.5 0.46875 2.65625 0.96875q2.15625 0.484375 2.953125 0.84375q1.171875 0.53125 1.71875 1.359375q0.5625 0.828125 0.5625 1.90625q0 1.0625 -0.609375 2.015625q-0.609375 0.9375 -1.75 1.46875q-1.140625 0.515625 -2.578125 0.515625q-1.8125 0 -3.046875 -0.53125q-1.21875 -0.53125 -1.921875 -1.59375q-0.6875 -1.0625 -0.71875 -2.40625zm13.334198 4.296875l0 -13.359375l1.765625 0l0 13.359375l-1.765625 0zm15.011444 -1.4375q1.234375 0.859375 2.265625 1.25l-0.515625 1.21875q-1.4375 -0.515625 -2.875 -1.625q-1.484375 0.828125 -3.28125 0.828125q-1.8125 0 -3.296875 -0.875q-1.46875 -0.875 -2.265625 -2.453125q-0.796875 -1.59375 -0.796875 -3.578125q0 -1.984375 0.796875 -3.59375q0.8125 -1.625 2.28125 -2.46875q1.484375 -0.859375 3.328125 -0.859375q1.84375 0 3.328125 0.890625q1.484375 0.875 2.265625 2.453125q0.78125 1.578125 0.78125 3.5625q0 1.65625 -0.5 2.96875q-0.5 1.3125 -1.515625 2.28125zm-3.890625 -2.25q1.53125 0.421875 2.515625 1.28125q1.5625 -1.421875 1.5625 -4.28125q0 -1.625 -0.546875 -2.828125q-0.546875 -1.21875 -1.609375 -1.875q-1.0625 -0.671875 -2.390625 -0.671875q-1.96875 0 -3.28125 1.359375q-1.296875 1.34375 -1.296875 4.03125q0 2.59375 1.28125 4.0q1.296875 1.390625 3.296875 1.390625q0.953125 0 1.78125 -0.359375q-0.828125 -0.53125 -1.75 -0.765625l0.4375 -1.28125zm17.042664 -9.671875l1.765625 0l0 7.71875q0 2.015625 -0.453125 3.203125q-0.453125 1.1875 -1.640625 1.9375q-1.1875 0.734375 -3.125 0.734375q-1.875 0 -3.078125 -0.640625q-1.1875 -0.65625 -1.703125 -1.875q-0.5 -1.234375 -0.5 -3.359375l0 -7.71875l1.765625 0l0 7.71875q0 1.734375 0.3125 2.5625q0.328125 0.8125 1.109375 1.265625q0.796875 0.453125 1.9375 0.453125q1.953125 0 2.78125 -0.890625q0.828125 -0.890625 0.828125 -3.390625l0 -7.71875zm4.7385864 13.359375l0 -13.359375l9.65625 0l0 1.578125l-7.875 0l0 4.09375l7.375 0l0 1.5625l-7.375 0l0 4.546875l8.1875 0l0 1.578125l-9.96875 0zm25.017487 -1.578125q-0.8125 0.90625 -1.765625 1.359375q-0.953125 0.453125 -2.0625 0.453125q-2.046875 0 -3.25 -1.390625q-0.984375 -1.125 -0.984375 -2.53125q0 -1.234375 0.796875 -2.234375q0.796875 -1.0 2.390625 -1.75q-0.90625 -1.03125 -1.203125 -1.671875q-0.296875 -0.65625 -0.296875 -1.265625q0 -1.203125 0.9375 -2.078125q0.9375 -0.890625 2.375 -0.890625q1.359375 0 2.234375 0.84375q0.875 0.828125 0.875 2.0q0 1.90625 -2.53125 3.25l2.390625 3.0625q0.421875 -0.8125 0.640625 -1.859375l1.703125 0.359375q-0.4375 1.75 -1.1875 2.875q0.921875 1.21875 2.09375 2.046875l-1.109375 1.3125q-0.984375 -0.640625 -2.046875 -1.890625zm-3.328125 -6.953125q1.0625 -0.640625 1.375 -1.109375q0.3125 -0.46875 0.3125 -1.046875q0 -0.6875 -0.4375 -1.109375q-0.421875 -0.4375 -1.0625 -0.4375q-0.671875 0 -1.125 0.4375q-0.4375 0.421875 -0.4375 1.03125q0 0.3125 0.15625 0.65625q0.171875 0.34375 0.484375 0.734375l0.734375 0.84375zm2.296875 5.65625l-3.0 -3.71875q-1.328125 0.796875 -1.796875 1.46875q-0.46875 0.671875 -0.46875 1.34375q0 0.8125 0.640625 1.6875q0.65625 0.875 1.84375 0.875q0.734375 0 1.515625 -0.453125q0.796875 -0.46875 1.265625 -1.203125zm20.767517 -1.8125l1.765625 0.453125q-0.5625 2.171875 -2.0 3.328125q-1.4375 1.140625 -3.53125 1.140625q-2.15625 0 -3.515625 -0.875q-1.34375 -0.890625 -2.0625 -2.546875q-0.703125 -1.671875 -0.703125 -3.59375q0 -2.078125 0.796875 -3.625q0.796875 -1.5625 2.265625 -2.359375q1.484375 -0.8125 3.25 -0.8125q2.0 0 3.359375 1.015625q1.375 1.015625 1.90625 2.875l-1.734375 0.40625q-0.46875 -1.453125 -1.359375 -2.109375q-0.875 -0.671875 -2.203125 -0.671875q-1.546875 0 -2.578125 0.734375q-1.03125 0.734375 -1.453125 1.984375q-0.421875 1.234375 -0.421875 2.5625q0 1.703125 0.5 2.96875q0.5 1.265625 1.546875 1.90625q1.046875 0.625 2.265625 0.625q1.484375 0 2.515625 -0.859375q1.03125 -0.859375 1.390625 -2.546875zm4.004181 4.6875l0 -13.359375l1.765625 0l0 5.484375l6.9375305 0l0 -5.484375l1.765625 0l0 13.359375l-1.765625 0l0 -6.296875l-6.9375305 0l0 6.296875l-1.765625 0zm13.707306 0l0 -13.359375l1.765625 0l0 13.359375l-1.765625 0zm4.8395996 0l0 -13.359375l2.65625 0l3.15625 9.453125q0.4375 1.328125 0.640625 1.984375q0.234375 -0.734375 0.703125 -2.140625l3.203125 -9.296875l2.375 0l0 13.359375l-1.703125 0l0 -11.171875l-3.875 11.171875l-1.59375 0l-3.859375 -11.375l0 11.375l-1.703125 0zm15.8845215 0l0 -13.359375l1.765625 0l0 13.359375l-1.765625 0zm4.9177246 0l0 -13.359375l9.65625 0l0 1.578125l-7.875 0l0 4.09375l7.375 0l0 1.5625l-7.375 0l0 4.546875l8.1875 0l0 1.578125l-9.96875 0zm17.595642 0l0 -13.359375l4.609375 0q1.546875 0 2.375 0.203125q1.140625 0.25 1.953125 0.953125q1.0625 0.890625 1.578125 2.28125q0.53125 1.390625 0.53125 3.171875q0 1.515625 -0.359375 2.703125q-0.359375 1.171875 -0.921875 1.9375q-0.546875 0.765625 -1.203125 1.21875q-0.65625 0.4375 -1.59375 0.671875q-0.9375 0.21875 -2.140625 0.21875l-4.828125 0zm1.765625 -1.578125l2.859375 0q1.3125 0 2.0625 -0.234375q0.75 -0.25 1.203125 -0.703125q0.625 -0.625 0.96875 -1.6875q0.359375 -1.0625 0.359375 -2.578125q0 -2.09375 -0.6875 -3.21875q-0.6875 -1.125 -1.671875 -1.5q-0.703125 -0.28125 -2.28125 -0.28125l-2.8125 0l0 10.203125zm20.472961 -11.78125l1.765625 0l0 7.71875q0 2.015625 -0.453125 3.203125q-0.453125 1.1875 -1.640625 1.9375q-1.1875 0.734375 -3.125 0.734375q-1.875 0 -3.078125 -0.640625q-1.1875 -0.65625 -1.703125 -1.875q-0.5 -1.234375 -0.5 -3.359375l0 -7.71875l1.765625 0l0 7.71875q0 1.734375 0.3125 2.5625q0.328125 0.8125 1.109375 1.265625q0.796875 0.453125 1.9375 0.453125q1.953125 0 2.78125 -0.890625q0.828125 -0.890625 0.828125 -3.390625l0 -7.71875zm9.8125 13.359375l0 -13.359375l5.015625 0q1.53125 0 2.453125 0.40625q0.921875 0.40625 1.4375 1.25q0.53125 0.84375 0.53125 1.765625q0 0.859375 -0.46875 1.625q-0.453125 0.75 -1.390625 1.203125q1.203125 0.359375 1.859375 1.21875q0.65625 0.859375 0.65625 2.015625q0 0.9375 -0.40625 1.75q-0.390625 0.796875 -0.984375 1.234375q-0.578125 0.4375 -1.453125 0.671875q-0.875 0.21875 -2.15625 0.21875l-5.09375 0zm1.78125 -7.75l2.875 0q1.1875 0 1.6875 -0.140625q0.671875 -0.203125 1.015625 -0.671875q0.34375 -0.46875 0.34375 -1.171875q0 -0.65625 -0.328125 -1.15625q-0.3125 -0.515625 -0.90625 -0.703125q-0.59375 -0.1875 -2.03125 -0.1875l-2.65625 0l0 4.03125zm0 6.171875l3.3125 0q0.859375 0 1.203125 -0.0625q0.609375 -0.109375 1.015625 -0.359375q0.421875 -0.265625 0.6875 -0.75q0.265625 -0.484375 0.265625 -1.125q0 -0.75 -0.390625 -1.296875q-0.375 -0.546875 -1.0625 -0.765625q-0.671875 -0.234375 -1.953125 -0.234375l-3.078125 0l0 4.59375zm9.2716675 1.578125l5.125 -13.359375l1.90625 0l5.46875 13.359375l-2.015625 0l-1.546875 -4.046875l-5.59375 0l-1.46875 4.046875l-1.875 0zm3.859375 -5.484375l4.53125 0l-1.40625 -3.703125q-0.625 -1.6875 -0.9375 -2.765625q-0.265625 1.28125 -0.71875 2.546875l-1.46875 3.921875zm19.584229 0.796875l1.765625 0.453125q-0.5625 2.171875 -2.0 3.328125q-1.4375 1.140625 -3.53125 1.140625q-2.15625 0 -3.515625 -0.875q-1.34375 -0.890625 -2.0625 -2.546875q-0.703125 -1.671875 -0.703125 -3.59375q0 -2.078125 0.796875 -3.625q0.796875 -1.5625 2.265625 -2.359375q1.484375 -0.8125 3.25 -0.8125q2.0 0 3.359375 1.015625q1.375 1.015625 1.90625 2.875l-1.734375 0.40625q-0.46875 -1.453125 -1.359375 -2.109375q-0.875 -0.671875 -2.203125 -0.671875q-1.546875 0 -2.578125 0.734375q-1.03125 0.734375 -1.453125 1.984375q-0.421875 1.234375 -0.421875 2.5625q0 1.703125 0.5 2.96875q0.5 1.265625 1.546875 1.90625q1.046875 0.625 2.265625 0.625q1.484375 0 2.515625 -0.859375q1.03125 -0.859375 1.390625 -2.546875z" fill-rule="nonzero"/></g></svg>